<?xml version="1.0" standalone="no"?>
<!DOCTYPE svg PUBLIC "-//W3C//DTD SVG 20010904//EN"
 "http://www.w3.org/TR/2001/REC-SVG-20010904/DTD/svg10.dtd">
<svg version="1.0" xmlns="http://www.w3.org/2000/svg"
 width="500.000000pt" height="500.000000pt" viewBox="0 0 500.000000 500.000000"
 preserveAspectRatio="xMidYMid meet">

<g transform="translate(0.000000,500.000000) scale(0.100000,-0.100000)"
fill="#000000" stroke="none">
<path d="M2461 4839 c-68 -12 -140 -50 -207 -112 -94 -86 -138 -195 -133 -326
4 -67 10 -89 43 -155 55 -109 119 -165 221 -195 124 -37 205 -24 328 54 l47
30 0 73 0 74 -40 -35 c-141 -121 -351 -40 -376 146 -12 82 40 187 113 229 44
26 123 34 180 17 63 -17 136 -89 154 -150 8 -24 24 -59 36 -78 26 -39 25 -30
27 -226 1 -168 8 -194 71 -263 48 -54 108 -77 182 -69 65 7 100 29 125 78 24
45 23 90 -3 123 -26 34 -35 33 -42 -4 -4 -19 -18 -37 -39 -51 -68 -42 -165 -2
-208 87 -27 55 -24 130 10 254 20 74 22 93 12 147 -30 179 -176 323 -358 353
-66 11 -68 11 -143 -1z"/>
<path d="M1907 4802 c-22 -25 -21 -55 2 -76 27 -25 63 -17 79 17 12 24 11 31
-2 53 -20 29 -56 32 -79 6z"/>
<path d="M3337 4809 c-40 -24 -39 -77 3 -99 42 -22 89 29 68 74 -6 14 -15 26
-19 26 -4 0 -13 2 -21 5 -7 2 -21 0 -31 -6z"/>
<path d="M3006 4770 l-29 -29 36 -73 c35 -73 57 -152 57 -210 0 -23 3 -29 16
-24 9 3 27 9 40 12 33 8 39 42 25 124 -16 89 -85 233 -109 229 -4 -1 -20 -14
-36 -29z"/>
<path d="M1634 4718 c-4 -7 -23 -37 -41 -66 l-34 -52 25 -10 c14 -5 88 -40
164 -78 137 -68 216 -116 241 -146 8 -9 16 -16 20 -16 3 0 7 39 7 86 l1 86
-59 44 c-51 37 -291 164 -310 164 -4 0 -10 -6 -14 -12z"/>
<path d="M3840 4652 c-46 -47 -39 -101 18 -131 19 -10 30 -10 53 0 73 30 63
136 -13 155 -22 5 -33 0 -58 -24z"/>
<path d="M940 4610 c-11 -11 -20 -31 -20 -43 0 -27 28 -57 53 -57 23 0 57 36
57 60 0 23 -33 60 -55 60 -8 0 -24 -9 -35 -20z"/>
<path d="M3437 4609 c-73 -17 -146 -68 -172 -120 l-15 -28 55 -11 c85 -18 166
-63 229 -130 82 -86 109 -151 114 -273 l4 -97 54 71 c77 104 97 162 92 274 -3
68 -10 101 -27 133 -68 132 -214 211 -334 181z"/>
<path d="M1171 4547 c-12 -27 -19 -52 -17 -54 2 -2 30 -8 63 -13 98 -13 142
-37 234 -125 l46 -44 37 25 c42 29 108 54 142 54 13 0 24 5 24 11 0 23 -317
153 -447 183 l-61 14 -21 -51z"/>
<path d="M2535 4543 c-111 -29 -128 -185 -26 -238 116 -59 239 70 171 180 -12
20 -37 39 -60 49 -41 16 -51 17 -85 9z"/>
<path d="M4077 4464 c-37 -19 -93 -50 -123 -69 l-54 -35 6 -42 c4 -24 7 -44 8
-45 1 -1 42 16 91 39 49 22 111 45 138 51 53 13 54 16 20 95 l-18 41 -68 -35z"/>
<path d="M1061 4369 c-154 -45 -228 -230 -145 -366 60 -99 183 -123 251 -49
24 26 33 45 33 71 0 37 -28 75 -55 75 -20 0 -20 54 1 74 46 46 135 -16 153
-106 6 -30 8 -29 64 57 32 50 55 96 52 104 -11 36 -98 111 -151 131 -59 21
-145 25 -203 9z"/>
<path d="M3125 4332 c-22 -11 -53 -34 -70 -51 -26 -28 -30 -40 -30 -91 0 -52
4 -63 28 -87 l27 -28 0 28 c0 42 49 87 94 87 103 0 176 -82 176 -196 0 -72
-27 -131 -83 -180 -59 -51 -100 -66 -184 -66 -55 0 -84 6 -126 25 -60 27 -133
88 -142 118 -4 10 -10 19 -14 19 -9 0 -40 -63 -57 -116 l-12 -41 60 -17 c83
-23 212 -83 278 -129 52 -37 58 -39 114 -34 84 8 194 65 252 131 56 63 102
157 116 237 26 149 -57 316 -189 380 -66 32 -183 37 -238 11z"/>
<path d="M696 4272 c-82 -100 -119 -231 -97 -343 34 -168 167 -302 285 -284
65 10 157 60 211 114 l49 51 -70 0 c-171 0 -296 132 -295 310 0 59 7 95 26
141 4 12 -4 23 -28 38 -19 11 -36 21 -38 21 -2 0 -21 -21 -43 -48z"/>
<path d="M1645 4276 c-63 -18 -102 -59 -210 -225 -86 -131 -197 -281 -264
-358 -79 -89 -162 -130 -336 -164 -162 -33 -267 -105 -321 -221 -26 -56 -29
-74 -29 -158 0 -88 3 -100 33 -159 42 -80 109 -146 173 -168 l49 -18 -1 -53
c-2 -52 -2 -53 -28 -47 -14 4 -52 17 -84 30 l-58 23 7 -22 c3 -11 22 -52 42
-89 l35 -69 52 7 52 6 27 -44 c99 -169 342 -199 469 -58 21 23 43 53 49 67 11
24 12 24 155 24 l143 0 0 55 0 55 -134 0 -134 0 -11 44 c-6 25 -11 50 -11 55
0 7 51 11 148 11 l149 0 -3 28 c-1 15 -2 37 -3 50 l-1 22 -257 0 c-236 0 -260
-2 -298 -20 -23 -11 -54 -34 -70 -50 -25 -26 -30 -40 -33 -95 -4 -63 -3 -66
31 -100 39 -39 86 -47 125 -19 35 24 29 59 -15 81 -45 22 -54 52 -23 83 25 25
58 21 99 -11 37 -29 50 -58 51 -107 0 -51 -18 -91 -59 -125 -38 -31 -79 -41
-138 -32 -63 9 -135 77 -159 147 -30 91 -9 171 69 255 74 80 148 103 337 103
66 0 120 4 120 8 0 18 -76 96 -107 108 -18 8 -52 14 -75 14 -42 0 -60 -7 -111
-43 -29 -21 -58 -12 -77 24 -26 47 60 108 165 117 97 7 161 -16 224 -83 29
-30 61 -75 72 -100 l20 -45 60 0 61 0 -7 33 c-28 128 -98 217 -217 278 -52 27
-78 33 -145 37 -101 6 -162 -9 -230 -53 -72 -48 -107 -108 -97 -170 7 -50 -12
-85 -48 -85 -77 0 -78 147 -2 247 29 38 18 42 -41 14 -99 -46 -140 -142 -101
-236 13 -29 74 -80 121 -99 6 -2 -4 -18 -22 -36 -39 -41 -66 -36 -130 23 -60
55 -83 105 -83 185 0 76 28 137 92 199 70 68 121 85 278 94 74 4 146 10 160
14 14 4 48 29 75 55 76 72 153 124 227 153 36 15 71 27 77 27 6 0 -1 16 -14
36 -51 76 -26 187 54 240 86 56 187 38 240 -43 17 -25 33 -60 37 -78 9 -49
-13 -113 -54 -157 -34 -35 -47 -42 -149 -67 -129 -32 -219 -73 -282 -129 l-45
-39 50 -12 c27 -7 69 -23 94 -35 l44 -24 51 39 c28 21 82 52 120 69 162 73
197 94 250 141 38 36 66 74 92 127 36 73 38 80 38 176 0 88 -3 108 -27 158
-71 151 -222 226 -373 184z"/>
<path d="M4115 4150 c-201 -40 -376 -204 -442 -412 l-28 -88 -51 0 c-47 0 -57
-4 -120 -55 -38 -30 -72 -55 -76 -55 -5 0 -8 -4 -8 -10 0 -6 46 -10 118 -10
129 0 162 -11 162 -55 0 -48 -29 -55 -217 -55 l-173 0 35 -46 c19 -25 35 -49
35 -53 0 -5 43 -11 95 -13 162 -9 238 -58 383 -251 40 -52 91 -112 115 -132
135 -116 349 -144 506 -68 71 34 160 125 199 201 53 106 53 262 1 370 -33 68
-122 157 -191 192 -55 27 -70 30 -155 30 -80 0 -102 -4 -148 -26 -160 -75
-208 -304 -87 -406 68 -57 161 -62 213 -12 38 36 37 66 -3 99 -31 26 -31 28
-17 54 33 60 127 22 149 -60 32 -116 -78 -232 -220 -233 -205 0 -389 224 -390
476 0 72 5 101 31 172 37 103 68 148 140 203 106 81 127 87 293 93 140 5 149
7 167 29 27 32 24 77 -6 106 -23 24 -29 25 -147 24 -68 -1 -141 -5 -163 -9z"/>
<path d="M2134 4075 c4 -11 12 -47 18 -81 16 -93 -11 -204 -80 -336 -2 -4 27
9 65 27 37 19 111 44 164 56 l97 22 26 66 c36 87 36 95 6 99 -84 10 -187 60
-259 126 -30 27 -42 34 -37 21z"/>
<path d="M2646 3950 c-55 -20 -67 -32 -102 -105 -34 -71 -32 -75 29 -75 l52 1
38 96 c20 53 36 97 35 98 -2 1 -25 -6 -52 -15z"/>
<path d="M1601 3874 c-41 -34 -42 -80 -5 -118 46 -46 114 -31 140 29 18 43 5
79 -35 100 -42 21 -65 19 -100 -11z"/>
<path d="M4085 3856 c-60 -27 -117 -89 -153 -166 -20 -42 -27 -75 -30 -140
l-3 -85 36 73 c40 81 99 136 195 181 52 24 63 26 190 24 74 -2 153 -4 175 -5
l40 -3 3 63 c3 59 2 63 -23 72 -15 6 -106 10 -203 9 -163 0 -181 -2 -227 -23z"/>
<path d="M516 3663 c-27 -66 -59 -193 -51 -201 2 -3 26 15 53 40 27 24 75 58
107 75 l58 31 -41 26 c-23 14 -52 42 -64 61 -13 19 -26 35 -29 35 -3 0 -18
-30 -33 -67z"/>
<path d="M2380 3655 c-108 -19 -168 -39 -250 -83 -163 -87 -297 -229 -362
-383 -52 -123 -58 -186 -58 -567 0 -325 1 -348 20 -386 20 -42 73 -86 103 -86
21 0 27 -10 43 -83 8 -34 36 -105 62 -157 37 -75 63 -111 127 -176 44 -45 105
-98 135 -118 132 -86 348 -114 515 -67 220 62 432 293 479 522 7 34 19 66 27
70 8 4 32 16 54 26 28 14 47 32 63 64 23 44 23 45 20 424 l-3 380 -31 86 c-70
195 -220 360 -419 459 -157 79 -347 105 -525 75z m451 -135 c21 -12 26 -52 7
-68 -8 -5 -111 -12 -238 -15 -190 -4 -235 -8 -290 -26 -88 -28 -176 -83 -256
-161 -172 -166 -202 -420 -73 -602 29 -40 115 -79 192 -85 34 -3 70 -10 80
-15 20 -10 23 -48 5 -66 -17 -17 -134 -15 -195 3 -96 29 -187 125 -228 242
-48 133 -26 331 48 453 40 67 129 170 176 204 87 63 216 118 319 136 72 12
430 12 453 0z m-253 -162 c18 -18 15 -56 -5 -66 -10 -5 -52 -12 -94 -15 -110
-8 -218 -54 -284 -123 -71 -74 -109 -151 -113 -236 -5 -85 19 -141 89 -199 49
-41 59 -65 37 -87 -19 -19 -59 -14 -99 14 -132 91 -160 303 -62 472 58 101
195 203 319 237 63 17 196 19 212 3z m438 -32 c100 -47 163 -137 164 -236 0
-44 4 -58 20 -68 11 -6 31 -34 45 -62 57 -112 15 -271 -86 -329 -38 -21 -55
-40 -75 -79 -14 -28 -43 -66 -64 -86 -111 -100 -311 -60 -385 78 -14 26 -26
36 -44 36 -117 0 -212 103 -215 230 -1 43 -4 50 -21 50 -38 1 -105 39 -125 72
-16 25 -20 45 -17 79 7 87 62 129 169 129 53 0 68 4 84 21 37 41 102 71 166
76 57 5 68 10 112 50 54 49 87 61 166 62 38 1 71 -6 106 -23z m-494 -792 c10
-22 9 -32 -7 -62 -27 -50 -129 -130 -189 -147 -65 -19 -445 -22 -464 -3 -18
18 -14 56 7 68 12 6 99 10 214 10 155 0 202 3 233 16 47 19 88 55 120 107 30
46 68 51 86 11z m678 -199 c16 -10 17 -44 3 -64 -14 -20 -22 -21 -327 -21
-267 0 -315 -2 -326 -15 -10 -12 -10 -18 0 -30 10 -12 48 -15 225 -15 118 0
221 -3 230 -6 20 -8 55 -76 55 -108 0 -34 -15 -71 -40 -96 -19 -19 -31 -20
-389 -20 -203 0 -377 -3 -385 -6 -74 -28 1 -143 118 -184 33 -11 74 -20 93
-20 20 0 41 -8 53 -20 24 -24 24 -30 7 -55 -12 -15 -24 -17 -84 -13 -234 17
-387 238 -250 361 18 15 52 17 387 17 384 0 412 3 397 44 -6 14 -30 16 -213
16 -170 0 -212 3 -240 16 -42 20 -64 59 -64 113 0 51 40 99 90 111 36 8 646 3
660 -5z m-899 -135 c21 -12 25 -50 7 -68 -8 -8 -58 -12 -160 -12 l-148 0 -12
25 c-9 21 -8 28 7 45 16 18 31 20 152 20 74 0 143 -5 154 -10z m554 -334 c13
-19 14 -29 5 -46 -11 -20 -17 -20 -203 -18 l-192 3 -3 28 c-6 54 4 57 199 57
178 0 179 0 194 -24z"/>
<path d="M2856 3250 c-36 -11 -81 -53 -97 -92 -10 -23 -16 -28 -33 -23 -12 3
-40 9 -63 12 -53 7 -113 -25 -142 -77 -23 -42 -26 -72 -10 -117 9 -27 7 -34
-15 -58 -49 -53 -45 -125 10 -180 46 -46 99 -55 168 -29 12 5 16 0 16 -22 0
-59 61 -130 132 -153 84 -28 190 42 203 134 6 38 11 45 30 45 27 0 81 36 109
72 25 35 26 110 2 156 -9 17 -35 44 -57 59 -29 19 -38 31 -33 42 27 59 6 149
-44 194 -43 39 -117 54 -176 37z"/>
<path d="M2353 3042 c-69 -7 -57 -82 13 -82 33 0 34 1 34 39 0 45 -3 48 -47
43z"/>
<path d="M1725 3407 c-76 -34 -108 -53 -129 -76 -18 -20 -18 -21 12 -59 54
-67 56 -67 81 -13 12 27 39 77 61 110 22 34 36 61 32 61 -4 -1 -29 -11 -57
-23z"/>
<path d="M3430 3177 c0 -9 20 -13 72 -13 66 0 69 1 42 13 -40 17 -114 17 -114
0z"/>
<path d="M3460 3040 c0 -6 44 -10 113 -10 76 0 107 3 97 10 -20 13 -210 13
-210 0z"/>
<path d="M3460 2866 l0 -54 203 -4 c196 -4 204 -5 262 -31 120 -55 185 -149
185 -267 0 -48 -7 -79 -25 -117 l-24 -53 48 0 c60 0 130 42 154 93 19 40 22
131 6 174 -19 51 -58 81 -118 93 -93 19 -237 94 -307 161 l-61 59 -161 0 -162
0 0 -54z"/>
<path d="M4396 2704 c-19 -18 -21 -65 -4 -82 7 -7 26 -12 44 -12 26 0 34 6 44
30 10 25 10 34 -4 55 -19 29 -56 33 -80 9z"/>
<path d="M3460 2556 l0 -146 115 0 115 0 45 -35 c79 -60 163 -57 229 10 87 86
56 229 -61 286 -45 22 -62 24 -245 27 l-198 4 0 -146z"/>
<path d="M1360 2440 l-35 -29 138 -1 137 0 0 30 0 30 -103 0 c-99 0 -104 -1
-137 -30z"/>
<path d="M1482 2288 c-28 -28 -4 -98 34 -98 33 0 54 21 54 53 0 40 -15 57 -50
57 -14 0 -31 -5 -38 -12z"/>
<path d="M4366 2284 c-19 -18 -21 -65 -4 -82 17 -17 64 -15 82 4 21 21 20 57
-2 77 -23 21 -56 22 -76 1z"/>
<path d="M687 2270 c-33 -26 -41 -63 -22 -100 29 -57 81 -66 126 -21 37 38 38
79 3 115 -32 31 -71 34 -107 6z"/>
<path d="M1123 2161 c-79 -49 -95 -141 -38 -210 53 -62 141 -65 200 -6 43 43
52 87 30 143 -32 79 -126 114 -192 73z"/>
<path d="M4033 2130 c-86 -52 -82 -189 6 -235 87 -45 191 20 191 120 0 103
-111 168 -197 115z"/>
<path d="M3587 2120 c-76 -60 -14 -182 76 -150 40 13 56 37 57 83 0 73 -77
111 -133 67z"/>
<path d="M1571 1874 c-44 -56 -13 -134 53 -134 50 0 86 33 86 79 0 76 -94 112
-139 55z"/>
<path d="M3372 1868 c-7 -7 -12 -27 -12 -45 0 -57 71 -73 99 -22 13 24 13 29
-2 53 -19 28 -63 36 -85 14z"/>
<path d="M852 1838 c-21 -21 -14 -66 13 -84 23 -15 27 -15 50 0 26 17 32 45
15 77 -12 22 -59 26 -78 7z"/>
<path d="M1960 1570 c0 -65 5 -131 11 -147 11 -28 86 -153 167 -276 l45 -68
25 23 c13 13 63 68 110 123 47 55 105 121 130 146 l43 46 -57 7 c-139 16 -332
114 -428 216 l-46 49 0 -119z"/>
<path d="M3058 1642 c-51 -58 -121 -109 -203 -149 -76 -38 -120 -52 -206 -67
l-69 -12 38 -39 c22 -22 91 -99 155 -172 l115 -132 70 117 c39 64 89 148 111
186 l41 70 0 123 c0 68 -2 123 -4 123 -2 0 -24 -22 -48 -48z"/>
<path d="M3672 1637 c-32 -34 -30 -89 4 -116 37 -29 70 -26 105 8 33 33 35 50
14 90 -24 48 -87 57 -123 18z"/>
<path d="M1316 1634 c-23 -23 -30 -62 -15 -80 20 -24 51 -33 74 -21 27 13 35
27 35 58 0 49 -60 77 -94 43z"/>
<path d="M1755 1370 c-76 -28 -619 -213 -715 -245 -204 -66 -341 -180 -431
-358 -57 -112 -69 -171 -72 -346 -2 -149 -2 -153 22 -172 22 -18 49 -19 825
-19 610 0 805 3 814 12 25 25 8 102 -90 418 -62 202 -113 372 -169 569 -18 62
-41 124 -52 137 -22 29 -59 30 -132 4z m-123 -223 c-26 -30 -142 -272 -142
-294 0 -21 178 -373 216 -428 33 -46 46 -45 -503 -43 l-518 3 1 85 c1 155 58
286 170 391 27 25 61 53 74 62 35 22 663 235 699 237 10 0 11 -3 3 -13z m266
-287 c116 -386 132 -443 132 -462 0 -15 -10 -18 -65 -18 l-65 0 -27 43 c-14
23 -49 87 -76 142 -28 55 -75 144 -104 197 l-55 97 35 58 c19 32 56 101 82
153 40 79 49 92 56 75 4 -11 44 -139 87 -285z"/>
<path d="M3182 1367 c-12 -13 -22 -27 -22 -32 0 -5 -27 -95 -60 -200 -33 -105
-68 -222 -79 -260 -10 -39 -53 -183 -95 -321 -78 -258 -85 -291 -64 -312 9 -9
203 -12 809 -12 l798 0 15 22 c13 18 16 51 16 154 0 140 -18 253 -51 332 -58
135 -188 275 -312 335 -40 20 -160 66 -267 102 -107 37 -292 100 -410 141
-118 40 -224 74 -236 74 -11 0 -30 -10 -42 -23z m400 -253 c73 -25 203 -69
288 -98 207 -71 256 -95 326 -165 101 -100 169 -272 162 -410 l-3 -56 -502 -3
c-534 -2 -521 -3 -490 43 8 11 41 72 75 135 33 63 81 151 106 195 25 44 46 86
46 93 0 8 -31 71 -69 140 -95 177 -93 172 -82 172 5 0 69 -21 143 -46z m-255
-71 c33 -60 70 -126 83 -148 l22 -40 -85 -150 c-47 -82 -105 -188 -129 -235
l-43 -85 -72 -3 c-63 -2 -73 -1 -73 14 0 10 24 96 54 193 51 165 118 389 152
509 8 28 19 52 23 52 5 0 36 -48 68 -107z"/>
<path d="M2480 1243 c-31 -32 -82 -88 -114 -126 l-59 -67 59 -87 58 -87 -48
-285 c-26 -158 -50 -295 -53 -307 -2 -12 3 -28 12 -38 15 -14 40 -16 202 -14
162 3 187 5 197 20 11 18 5 57 -63 453 l-30 170 25 35 c13 19 40 59 60 88 l35
53 -38 42 c-21 22 -56 61 -78 86 -22 25 -56 62 -75 84 l-35 39 -55 -59z"/>
</g>
</svg>
