<?xml version="1.0" standalone="no"?>
<!DOCTYPE svg PUBLIC "-//W3C//DTD SVG 20010904//EN"
 "http://www.w3.org/TR/2001/REC-SVG-20010904/DTD/svg10.dtd">
<svg version="1.0" xmlns="http://www.w3.org/2000/svg"
 width="500.000000pt" height="500.000000pt" viewBox="0 0 500.000000 500.000000"
 preserveAspectRatio="xMidYMid meet">

<g transform="translate(0.000000,500.000000) scale(0.100000,-0.100000)"
fill="#000000" stroke="none">
<path d="M3387 4466 c-79 -29 -136 -93 -162 -179 -11 -37 -16 -42 -50 -49 -69
-15 -133 -57 -171 -115 -43 -64 -54 -100 -54 -171 0 -39 -6 -62 -25 -90 -53
-81 -54 -188 -2 -272 15 -23 23 -53 24 -90 2 -70 23 -129 70 -192 72 -99 217
-134 359 -86 59 19 74 21 94 11 30 -15 104 -17 130 -3 13 7 40 7 80 1 86 -14
151 -4 212 33 66 39 114 102 134 175 14 49 22 60 65 89 27 18 64 55 84 85 86
131 65 279 -56 392 -58 53 -59 55 -59 107 0 30 -9 71 -19 94 -39 86 -148 158
-256 170 -46 5 -68 14 -93 35 -18 16 -47 36 -65 46 -43 22 -188 28 -240 9z
m136 -194 c9 -8 17 -25 17 -38 0 -19 8 -24 54 -34 29 -6 71 -20 92 -30 37 -19
53 -15 54 13 0 4 12 12 26 18 52 19 94 -12 94 -70 0 -21 -6 -44 -14 -50 -12
-11 -10 -21 19 -69 19 -30 40 -77 46 -104 12 -47 14 -48 50 -48 28 0 42 -6 53
-22 37 -53 -2 -125 -63 -116 -28 4 -32 1 -42 -31 -7 -20 -22 -57 -35 -83 -23
-45 -23 -47 -5 -53 29 -9 46 -58 30 -87 -6 -12 -17 -26 -23 -30 -22 -15 -76
-8 -96 12 -19 19 -20 19 -52 1 -18 -11 -52 -25 -76 -32 -40 -12 -42 -14 -37
-40 5 -22 1 -34 -19 -54 -50 -50 -135 -18 -122 46 5 26 3 29 -19 29 -13 0 -54
11 -90 24 -48 17 -65 20 -65 10 0 -17 -48 -54 -72 -54 -26 0 -68 44 -68 71 0
11 13 34 30 49 26 24 28 29 15 40 -9 7 -28 35 -43 61 -25 46 -29 49 -59 43
-51 -10 -80 2 -92 36 -18 53 13 100 66 100 33 0 33 0 33 48 1 26 7 65 15 87
10 28 11 41 3 44 -24 8 -48 43 -48 69 0 51 56 82 104 57 27 -14 30 -14 60 16
37 36 100 75 138 84 23 6 27 11 22 30 -16 65 64 104 119 57z"/>
<path d="M3405 4103 c-146 -61 -211 -164 -203 -321 4 -91 30 -151 89 -210 67
-67 119 -87 229 -87 86 0 99 3 143 28 65 38 120 97 151 160 21 41 26 65 26
126 0 128 -61 225 -174 283 -77 39 -196 49 -261 21z m323 -181 c67 -93 42
-231 -55 -308 -42 -34 -80 -50 -136 -60 -44 -7 -67 7 -67 42 0 18 7 25 28 30
89 20 109 29 139 60 30 33 53 86 53 127 0 10 -9 36 -20 58 -16 30 -18 44 -10
59 15 28 45 25 68 -8z"/>
<path d="M1195 4377 c-17 -8 -36 -21 -44 -30 -9 -11 -18 -14 -30 -8 -59 30
-148 19 -201 -25 -42 -36 -61 -77 -64 -136 -2 -42 -7 -52 -33 -71 -93 -66
-106 -188 -27 -268 36 -37 37 -41 35 -101 -2 -52 2 -69 21 -98 30 -44 81 -79
128 -86 28 -5 40 -14 55 -42 29 -52 66 -75 128 -80 70 -6 119 11 155 52 21 24
40 34 70 39 58 7 110 36 146 80 25 31 30 47 30 90 1 29 -3 64 -6 78 -7 23 -3
28 32 44 129 58 158 206 62 309 -36 38 -98 66 -148 66 -39 0 -40 1 -41 35 -1
43 -34 97 -80 132 -42 32 -138 42 -188 20z m120 -103 c8 -4 22 -19 31 -35 12
-24 13 -37 4 -70 -14 -50 1 -94 33 -103 12 -3 47 -3 78 1 74 7 103 -1 117 -32
34 -74 0 -122 -98 -140 -37 -8 -70 -31 -70 -49 0 -6 11 -33 25 -61 31 -64 31
-90 -1 -122 -22 -22 -31 -25 -67 -18 -88 14 -90 14 -99 -29 -12 -55 -33 -76
-79 -76 -44 0 -69 27 -69 75 0 17 -6 40 -14 50 -12 17 -18 18 -56 6 -100 -30
-151 52 -88 141 24 34 10 68 -27 68 -13 0 -36 11 -51 23 -55 48 -21 131 59
144 48 7 55 23 32 73 -20 44 -15 80 15 110 31 31 74 25 119 -15 42 -38 66 -38
77 -2 16 55 74 82 129 61z m315 -369 c0 -8 -4 -15 -9 -15 -13 0 -22 16 -14 24
11 11 23 6 23 -9z"/>
<path d="M2447 4352 c-37 -40 -7 -104 48 -104 56 0 87 69 47 105 -25 22 -75
21 -95 -1z"/>
<path d="M1938 4283 c-70 -44 -60 -141 19 -178 33 -16 41 -16 78 -4 56 20 84
71 67 125 -20 67 -102 95 -164 57z"/>
<path d="M2290 3960 c-111 -23 -195 -53 -300 -104 -110 -54 -155 -88 -267
-196 -138 -135 -262 -335 -329 -534 -50 -146 -84 -409 -84 -652 0 -166 -11
-231 -80 -479 -63 -229 -76 -317 -61 -411 24 -140 127 -263 251 -302 75 -23
233 -19 428 11 l152 23 0 -52 c0 -57 -24 -98 -62 -107 -13 -3 -72 -13 -133
-22 -445 -66 -643 -152 -800 -349 -26 -33 -56 -79 -66 -103 -18 -42 -20 -43
-63 -43 -27 0 -51 -6 -60 -16 -19 -18 -21 -55 -4 -72 17 -17 3359 -17 3376 0
36 36 -2 88 -66 88 -40 0 -42 2 -66 53 -14 28 -47 77 -73 108 -163 190 -331
261 -787 335 -130 20 -163 31 -181 57 -19 27 -21 129 -2 122 41 -15 329 -48
417 -48 85 0 116 4 160 22 162 64 243 189 242 376 -1 92 -5 111 -98 455 -35
130 -36 143 -44 375 -9 242 -39 483 -73 580 -13 37 -17 40 -48 39 -19 -1 -56
2 -84 7 -41 7 -59 6 -100 -10 -250 -95 -522 70 -545 332 -3 40 -14 87 -24 105
-50 95 -51 222 -2 328 l25 55 -24 9 c-110 42 -377 52 -525 20z m-102 -434 c65
-190 254 -410 434 -506 48 -26 59 -36 56 -53 -6 -40 -44 -32 -144 28 -69 42
-117 82 -185 152 -97 102 -136 157 -188 267 -68 143 -74 190 -23 184 23 -3 29
-12 50 -72z m1 -338 c120 -161 317 -286 535 -338 43 -11 80 -21 82 -23 3 -2
-16 -12 -41 -21 -56 -22 -89 -60 -74 -87 13 -26 40 -24 102 7 72 37 147 41
279 15 59 -11 159 -27 223 -36 133 -17 144 -22 182 -72 60 -79 36 -257 -47
-344 -31 -33 -43 -39 -78 -39 -22 0 -47 -3 -56 -6 -10 -4 -29 -49 -50 -113
-49 -156 -100 -245 -214 -379 -100 -116 -297 -250 -421 -286 -114 -33 -234
-10 -376 72 -229 134 -403 343 -475 571 -40 129 -49 141 -107 141 -41 0 -51 5
-84 39 -74 79 -103 234 -59 320 34 68 102 104 117 64 7 -20 22 -33 40 -33 6 0
62 55 125 123 106 116 196 238 298 405 25 39 48 72 52 72 4 0 25 -24 47 -52z
m-6 -1738 c200 -130 426 -131 630 -2 37 23 69 42 72 42 3 0 5 -60 5 -132 0
-73 4 -150 9 -171 18 -78 78 -115 226 -142 50 -9 114 -21 143 -26 l52 -10 -37
-72 c-83 -157 -238 -257 -448 -287 -107 -15 -595 -12 -686 4 -144 26 -306 108
-369 188 -33 42 -90 143 -90 159 0 12 24 19 115 33 151 23 208 40 250 77 46
41 55 79 55 242 0 75 2 137 5 137 3 0 34 -18 68 -40z"/>
<path d="M1931 2820 c-72 -22 -101 -43 -101 -75 0 -34 20 -36 106 -8 105 33
183 29 271 -15 64 -33 86 -33 104 -1 27 51 -120 120 -250 118 -36 0 -95 -9
-130 -19z"/>
<path d="M2000 2650 c-117 -39 -216 -80 -224 -93 -23 -36 38 -60 96 -38 69 25
75 24 82 -18 13 -86 91 -129 181 -99 33 11 44 22 64 62 l25 49 36 -41 c57 -67
100 -49 65 29 -22 48 -92 114 -148 140 -44 19 -132 24 -177 9z m125 -90 c23
-25 13 -67 -20 -82 -52 -23 -100 46 -59 86 21 22 57 20 79 -4z"/>
<path d="M2813 2634 c-56 -27 -114 -85 -140 -139 -32 -68 11 -88 67 -30 19 19
36 35 39 35 4 0 14 -19 25 -41 24 -52 70 -74 135 -65 63 9 111 60 111 117 0
20 4 21 38 15 96 -18 118 -18 132 -1 22 27 2 45 -85 77 -190 70 -238 74 -322
32z m145 -66 c19 -19 14 -63 -8 -83 -46 -41 -116 29 -75 75 20 22 64 27 83 8z"/>
<path d="M2379 2069 c-9 -18 -7 -26 9 -48 58 -78 232 -56 232 29 0 41 -16 46
-71 19 l-50 -23 -45 22 c-55 27 -61 27 -75 1z"/>
<path d="M2297 1813 c-33 -5 -45 -29 -26 -49 8 -7 53 -23 99 -35 101 -26 211
-22 304 9 66 23 83 40 61 61 -14 14 -43 15 -225 10 -19 0 -69 2 -110 4 -41 3
-88 3 -103 0z"/>
<path d="M789 3277 c-47 -36 -51 -97 -10 -138 60 -59 156 -23 156 59 0 57 -34
92 -89 92 -23 0 -48 -6 -57 -13z"/>
<path d="M4066 3134 c-10 -10 -16 -33 -16 -65 l0 -49 -48 0 c-54 0 -72 -12
-72 -50 0 -38 18 -50 72 -50 l48 0 0 -44 c0 -47 19 -76 49 -76 29 0 51 33 51
78 l0 42 44 0 c65 0 91 33 66 81 -8 15 -22 19 -60 19 l-50 0 0 43 c0 72 -45
110 -84 71z"/>
<path d="M955 3065 c-56 -56 -18 -155 60 -155 48 0 95 45 95 90 0 76 -102 119
-155 65z"/>
<path d="M3952 2600 c-31 -13 -46 -49 -33 -83 19 -51 95 -56 120 -8 15 28 14
46 -6 69 -22 25 -51 33 -81 22z"/>
<path d="M940 2560 c-27 -27 -25 -66 5 -96 29 -29 58 -26 88 8 22 27 22 49 -4
82 -25 31 -61 34 -89 6z"/>
</g>
</svg>
