<?xml version="1.0" standalone="no"?>
<!DOCTYPE svg PUBLIC "-//W3C//DTD SVG 20010904//EN"
 "http://www.w3.org/TR/2001/REC-SVG-20010904/DTD/svg10.dtd">
<svg version="1.0" xmlns="http://www.w3.org/2000/svg"
 width="225.000000pt" height="225.000000pt" viewBox="0 0 225.000000 225.000000"
 preserveAspectRatio="xMidYMid meet">

<g transform="translate(0.000000,225.000000) scale(0.100000,-0.100000)"
fill="#000000" stroke="none">
<path d="M1829 2184 c-8 -3 -107 -102 -220 -221 -309 -328 -291 -306 -278
-340 6 -15 11 -53 11 -84 0 -105 -59 -196 -156 -240 -51 -23 -150 -25 -200 -4
-73 31 -141 111 -160 187 -7 31 32 20 -450 119 -321 66 -328 66 -361 15 -21
-32 -12 -81 19 -101 12 -8 189 -49 392 -90 203 -41 378 -79 388 -83 15 -7 32
-63 88 -301 38 -161 68 -295 66 -296 -2 -2 -172 -66 -379 -143 -207 -77 -390
-147 -407 -156 -43 -22 -69 -91 -52 -140 17 -51 62 -86 113 -86 29 0 211 63
622 216 319 119 592 222 606 230 39 20 59 57 59 111 0 26 -34 195 -77 375
l-76 327 154 163 c84 90 188 199 230 243 166 175 173 184 173 221 0 53 -53 92
-105 78z"/>
<path d="M813 1953 c-7 -2 -13 -11 -13 -19 0 -17 71 -113 84 -113 5 -1 6 22 4
51 -4 38 -12 57 -28 70 -23 19 -27 20 -47 11z"/>
<path d="M1000 1757 c-19 -6 -55 -32 -80 -57 -89 -89 -94 -215 -11 -311 46
-55 100 -79 176 -78 241 0 319 325 104 433 -58 28 -125 33 -189 13z m190 -192
c0 -15 -7 -26 -20 -30 -41 -13 -70 43 -33 64 25 13 53 -5 53 -34z m-140 -24
c0 -28 -28 -47 -48 -34 -24 15 -27 44 -7 59 22 17 55 1 55 -25z m188 -65 c12
-60 -116 -128 -200 -105 -35 9 -72 44 -63 59 3 4 34 10 69 14 36 3 89 18 118
31 58 27 71 27 76 1z"/>
<path d="M640 1695 c-25 -31 -5 -44 57 -38 32 3 60 7 62 9 7 6 -65 44 -85 44
-12 0 -27 -7 -34 -15z"/>
<path d="M2010 1435 c-264 -99 -274 -104 -267 -112 8 -7 497 178 497 188 0 11
29 21 -230 -76z"/>
<path d="M1750 1405 c-90 -35 -166 -68 -168 -73 -2 -6 76 20 172 56 97 37 176
70 176 74 0 12 -3 11 -180 -57z"/>
<path d="M1873 1313 c-95 -36 -173 -69 -173 -74 0 -5 21 0 48 10 26 10 104 40
175 66 70 26 127 52 127 56 0 5 -1 9 -2 8 -2 0 -81 -30 -175 -66z"/>
<path d="M495 967 c-260 -98 -251 -94 -243 -103 7 -7 498 178 498 188 0 12 -1
12 -255 -85z"/>
<path d="M280 955 c-178 -67 -194 -74 -187 -81 7 -7 347 119 347 129 0 11 -6
9 -160 -48z"/>
<path d="M380 855 c-90 -34 -166 -67 -168 -73 -2 -6 76 20 172 56 97 37 176
70 176 74 0 12 -1 11 -180 -57z"/>
<path d="M1240 546 l-165 -62 -32 -60 c-51 -94 -41 -178 26 -214 31 -16 757
-149 782 -143 55 14 99 69 99 123 0 37 -31 90 -62 106 -16 8 -147 37 -290 65
-144 27 -264 52 -267 54 -3 3 16 46 42 94 48 90 53 102 40 100 -5 -1 -82 -29
-173 -63z"/>
</g>
</svg>
