<?xml version="1.0"?>
<svg width="640" height="480" xmlns="http://www.w3.org/2000/svg" xmlns:svg="http://www.w3.org/2000/svg">
 <!-- Created with SVG-edit - https://github.com/SVG-Edit/svgedit-->
 <g class="layer">
  <title>Layer 1</title>
  <path d="m381.11,1.03c-1.35,0.04 -2.66,0.16 -4.02,0.29c-21.72,2.15 -40.89,15.85 -50.62,36.26l-5.16,15.45c1.11,-5.35 2.82,-10.54 5.16,-15.45c-17.37,-17.88 -41.74,-26.14 -65.83,-22.26c-24.09,3.87 -45,19.4 -56.43,41.92c-32.27,-19.75 -72.5,-18.56 -103.62,3.12c-31.12,21.68 -47.71,60.05 -42.67,98.77l3.3,15.74c-1.49,-5.16 -2.6,-10.4 -3.3,-15.74l-0.5,1.45c-27.05,2.93 -49.24,23.79 -55,51.71c-5.76,27.92 6.22,56.56 29.69,71l36.64,8.85c-12.79,1.05 -25.57,-2.04 -36.64,-8.85c-18.1,20.15 -22.27,49.99 -10.33,74.62c11.94,24.64 37.44,38.83 63.75,35.61l15.99,-4.21c-5.15,2.14 -10.49,3.53 -15.99,4.21c14.93,27.32 39.7,47.26 68.77,55.19c29.07,7.93 59.95,3.24 85.69,-12.98c21,32.92 58.28,50.21 95.66,44.38c37.38,-5.82 68.21,-33.75 79.16,-71.65l3.8,-21.18c-0.57,7.19 -1.8,14.27 -3.8,21.18c25.71,16.76 58.05,17.7 84.61,2.47c26.56,-15.24 43.14,-44.29 43.38,-75.93l-9.52,-47.28l-37.52,-31.99c29.01,18.06 47.3,45.58 47.04,79.27c34.49,0.36 63.79,-29.02 76.94,-62.73c13.15,-33.71 8.17,-72.15 -13.05,-101.02c8.8,-21.5 8.28,-45.95 -1.43,-67.01c-9.72,-21.06 -27.64,-36.72 -49.19,-42.86c-4.82,-27.91 -24.71,-50.37 -50.98,-57.73c-26.28,-7.36 -54.26,1.72 -71.85,23.35l-10.68,17.91c2.73,-6.48 6.3,-12.52 10.68,-17.91c-12.4,-17 -31.85,-26.6 -52.13,-25.96z" fill="#ffe8ff" id="svg_1" stroke="#000000"/>
  <path d="m147,86c-2.43,0.5 -3.04,1.05 -4,2c-0.43,0.43 -0.91,0.91 -1.43,1.43c-0.55,0.55 -1.12,1.13 -1.69,1.73c-0.58,0.6 -1.16,1.19 -2.21,2.34c-0.49,0.53 -0.95,1.03 -1.73,2.05c-0.38,0.49 -0.74,0.99 -1.07,1.53c-1.08,1.73 -1.39,2.43 -1.74,3.16c-0.37,0.76 -0.74,1.56 -1.1,2.4c-0.37,0.86 -0.72,1.75 -1.05,2.67c-0.66,1.86 -0.93,2.83 -1.2,3.79c-0.26,0.95 -0.49,1.89 -0.69,2.82c-0.2,0.9 -0.37,1.76 -0.51,2.59c-0.26,1.51 -0.34,2.18 -0.4,2.8c-0.06,0.58 -0.09,1.13 -0.09,1.67c0,0.52 0.03,1.04 0.09,1.57c0.13,1.14 0.26,1.76 0.41,2.42c0.16,0.71 0.36,1.47 0.63,2.28c0.29,0.87 0.63,1.8 1.08,2.77c1,2.19 1.67,3.35 2.39,4.58c0.75,1.28 1.56,2.58 2.41,3.87c0.85,1.3 1.71,2.57 2.59,3.78c1.64,2.28 2.44,3.27 3.19,4.19c0.7,0.86 1.39,1.66 2.04,2.4c0.62,0.71 1.23,1.38 1.81,2.04c1.13,1.29 1.67,1.94 2.2,2.61c0.53,0.66 1.04,1.34 1.53,2.02c0.48,0.67 0.95,1.34 1.39,2.02c0.85,1.31 1.23,1.96 1.6,2.6c0.36,0.62 0.69,1.24 1.01,1.85c0.31,0.59 0.6,1.18 0.87,1.76c0.53,1.12 0.77,1.66 1,2.2c0.23,0.53 0.44,1.07 0.63,1.6c0.19,0.54 0.36,1.09 0.49,1.65c0.27,1.16 0.34,1.77 0.4,2.41c0.07,0.66 0.1,1.35 0.13,2.07c0.03,0.76 0.04,1.55 0.04,2.38c0.01,1.8 0,2.78 0,3.8c0,1.07 0,2.17 0,3.32c0,1.18 0,2.39 0,3.63c0,2.56 0,3.87 0,5.2c0,1.36 0,2.75 0,4.17c0,1.46 0,2.95 0,4.48c0,3.2 0,4.88 0,6.59c0,1.74 0.01,3.5 0.02,5.26c0.01,1.76 0.03,3.5 0.06,5.22c0.07,3.31 0.13,4.88 0.2,6.38c0.07,1.45 0.15,2.83 0.24,4.15l0.09,1.25l0.09,1.19l0.1,1.12" fill="none" id="svg_2" stroke="#000000"/>
  <path d="m327,46c6.38,1.98 6.94,2.12 7.52,2.27c1.33,0.35 2.11,0.56 3,0.82c1.01,0.3 3.48,1.07 4.96,1.55c1.64,0.54 3.42,1.14 5.31,1.79c1.98,0.68 4.02,1.39 6.1,2.13c2.1,0.75 6.27,2.25 8.3,3c1.97,0.73 3.89,1.46 5.74,2.19c1.8,0.71 3.53,1.41 5.19,2.13c1.6,0.69 4.55,2.09 5.91,2.8c1.29,0.68 2.48,1.37 3.59,2.06c1.04,0.65 1.98,1.29 2.83,1.91c0.78,0.58 2.06,1.65 2.56,2.14c0.44,0.43 0.79,0.85 1.06,1.24c0.24,0.35 0.42,0.7 0.54,1.03c0.11,0.31 0.24,0.92 0.28,1.22c0.04,0.31 0.06,0.63 0.05,0.96c-0.01,0.36 -0.04,0.75 -0.11,1.18c-0.07,0.47 -0.32,1.56 -0.49,2.19c-0.19,0.69 -0.42,1.42 -0.69,2.19c-0.29,0.81 -0.61,1.65 -0.99,2.51c-0.39,0.89 -1.31,2.68 -1.85,3.57c-0.55,0.92 -1.16,1.83 -1.84,2.75c-0.71,0.96 -1.49,1.94 -2.35,2.93c-0.9,1.05 -2.95,3.25 -4.1,4.42c-1.2,1.22 -2.46,2.45 -3.76,3.7c-1.32,1.26 -2.66,2.5 -4.02,3.72c-1.33,1.19 -3.91,3.42 -5.14,4.43c-1.17,0.96 -2.3,1.84 -3.4,2.67c-1.04,0.78 -2.05,1.51 -3.02,2.18c-0.93,0.64 -2.69,1.81 -3.53,2.34c-0.8,0.51 -1.57,0.99 -2.3,1.44c-0.69,0.43 -1.35,0.82 -1.96,1.2c-0.57,0.35 -1.57,0.99 -1.99,1.28c-0.38,0.27 -0.72,0.52 -1.02,0.75c-0.27,0.21 -0.5,0.4 -0.71,0.57c-0.19,0.15 -0.51,0.39 -0.66,0.48c-0.14,0.08 -0.28,0.16 -0.42,0.26c-0.15,0.11 -0.31,0.25 -0.47,0.43c-0.2,0.22 -0.64,0.88 -0.9,1.32c-0.3,0.51 -0.63,1.11 -0.99,1.78c-0.4,0.74 -0.82,1.55 -1.29,2.43c-0.5,0.94 -1.62,3.02 -2.24,4.15c-0.65,1.18 -1.34,2.4 -2.06,3.65c-0.73,1.27 -1.49,2.55 -2.27,3.82c-0.78,1.27 -2.37,3.74 -3.18,4.92c-0.79,1.15 -1.6,2.27 -2.4,3.36c-0.8,1.08 -1.6,2.15 -2.4,3.22c-0.8,1.07 -2.4,3.23 -3.2,4.35c-0.8,1.12 -1.59,2.25 -2.38,3.38c-0.78,1.12 -1.55,2.22 -2.31,3.3c-0.74,1.05 -2.18,3.05 -2.87,3.97c-0.66,0.88 -1.3,1.7 -1.91,2.48c-0.57,0.73 -1.1,1.4 -1.58,2.02l-0.44,0.58" fill="none" id="svg_4" stroke="#000000"/>
  <path d="m591,150c-3.89,0 -4.67,0 -5.52,0c-0.46,0 -1.98,0 -2.55,0c-0.6,0 -1.96,-0.03 -2.73,-0.08c-0.84,-0.05 -1.75,-0.13 -2.75,-0.26c-2.3,-0.29 -3.6,-0.54 -5,-0.8c-1.49,-0.28 -3.06,-0.61 -4.69,-0.96c-1.69,-0.37 -3.42,-0.76 -5.19,-1.19c-3.59,-0.86 -5.39,-1.33 -7.18,-1.79c-1.8,-0.46 -3.59,-0.93 -5.38,-1.4c-1.78,-0.46 -3.56,-0.92 -5.34,-1.35c-3.51,-0.85 -5.26,-1.23 -6.99,-1.6c-1.7,-0.36 -3.37,-0.69 -5.01,-0.99c-1.59,-0.3 -3.12,-0.57 -4.6,-0.81c-2.75,-0.45 -4.01,-0.63 -5.2,-0.8c-1.11,-0.16 -2.16,-0.29 -3.14,-0.41c-0.92,-0.11 -1.78,-0.2 -2.6,-0.27c-1.48,-0.13 -2.17,-0.17 -2.81,-0.2c-0.61,-0.02 -1.19,-0.03 -1.74,0.01c-0.53,0.04 -1.04,0.1 -1.51,0.24c-0.94,0.27 -1.38,0.53 -1.81,0.81c-0.45,0.29 -0.88,0.64 -1.3,1.04c-0.45,0.42 -0.9,0.91 -1.35,1.44c-0.99,1.18 -1.48,1.87 -2,2.61c-0.55,0.78 -1.12,1.62 -1.69,2.53c-0.6,0.96 -1.22,2 -1.83,3.12c-1.31,2.43 -1.94,3.78 -2.59,5.19c-0.68,1.46 -1.34,2.97 -2,4.53c-0.67,1.57 -1.32,3.16 -1.95,4.75c-1.25,3.14 -1.83,4.68 -2.4,6.19c-0.55,1.48 -1.09,2.94 -1.59,4.37c-0.5,1.41 -0.97,2.81 -1.41,4.19c-0.86,2.72 -1.24,4.06 -1.6,5.39c-0.35,1.29 -0.68,2.53 -0.99,3.71l-0.29,1.11l-0.27,1.03l-0.25,0.94" fill="none" id="svg_6" stroke="#000000"/>
  <path d="m130,431c0,-7.33 0,-8.14 0,-8.98c0,-0.86 0,-1.74 0,-2.65c0,-0.94 0,-1.91 0,-2.92c0,-2.12 0,-3.24 0,-4.39c0,-1.17 0,-2.35 0,-3.53c0,-1.17 0,-2.32 0,-3.43c0,-2.11 0,-3.08 0,-3.99c0,-0.86 0,-1.66 0,-2.41c0,-0.7 0,-1.35 0,-1.96c0,-1.08 0,-1.56 0,-2.01c0,-0.41 0,-0.79 0,-1.14c0,-0.33 0,-0.63 0,-1.44c0,-0.93 -0.02,-1.77 0,-2.78c0.02,-0.7 0.15,-1.89 0.28,-2.64c0.16,-0.87 0.27,-1.33 0.59,-2.31c0.17,-0.52 0.6,-1.61 1.18,-2.71c0.3,-0.57 0.64,-1.12 1.01,-1.66c0.73,-1.06 1.1,-1.56 1.94,-2.4c0.78,-0.77 1.24,-1.09 2.23,-1.73c0.56,-0.36 1.2,-0.72 1.91,-1.13c1.69,-0.98 2.7,-1.56 3.8,-2.2c1.19,-0.7 2.47,-1.45 3.81,-2.23c1.4,-0.82 2.85,-1.66 4.35,-2.5c3.06,-1.72 4.62,-2.56 6.17,-3.38c1.53,-0.81 3.04,-1.59 4.5,-2.33c1.41,-0.71 2.74,-1.37 4.01,-1.97c2.22,-1.05 3.16,-1.46 3.99,-1.8c0.73,-0.3 1.36,-0.54 1.92,-0.73c0.47,-0.16 0.89,-0.29 1.24,-0.37c0.57,-0.14 0.81,-0.17 1.01,-0.21c0.18,-0.03 0.34,-0.06 0.47,-0.08c0.12,-0.02 0.22,-0.04 0.29,-0.08c0.13,-0.07 0.17,-0.14 0.21,-0.21c0.04,-0.08 0.09,-0.19 0.14,-0.31c0.07,-0.15 0.16,-0.33 0.28,-0.54c0.31,-0.53 0.54,-0.85 1.09,-1.6c0.32,-0.44 0.67,-0.9 1.44,-1.95l0.42,-0.57" fill="none" id="svg_7" stroke="#000000"/>
  <path d="m257,219c-0.91,3.91 -0.95,4.33 -0.98,5.35c-0.02,0.63 -0.02,1.36 -0.02,2.21c0,2.1 0,3.38 0,4.8c0,1.56 0.01,3.24 0.02,5.03c0.01,1.88 0.03,3.85 0.06,5.88c0.07,4.22 0.13,6.39 0.2,8.57c0.07,2.18 0.17,4.36 0.29,6.51c0.12,2.12 0.27,4.19 0.47,6.2c0.39,3.79 0.69,5.54 1,7.19c0.29,1.56 0.62,3.02 0.97,4.39c0.33,1.28 0.67,2.48 1.01,3.58c0.61,1.97 0.92,2.83 1.2,3.61c0.25,0.73 0.5,1.4 0.73,2.04c0.22,0.6 0.43,1.17 0.64,1.72c0.4,1.09 0.61,1.65 0.8,2.21c0.2,0.57 0.39,1.14 0.56,1.72c0.17,0.57 0.34,1.14 0.47,1.72c0.26,1.11 0.34,1.66 0.4,2.2c0.06,0.54 0.1,1.08 0.13,1.62c0.03,0.56 0.04,1.13 0.04,1.71c0.01,1.25 0,1.91 0,2.6c0,0.72 -0.02,1.46 -0.04,2.23l-0.03,0.78l-0.04,0.8l-0.06,0.82" fill="none" id="svg_8" stroke="#000000"/>
  <path d="m375,441c-2.21,-2.22 -2.64,-2.87 -3.11,-3.63c-0.53,-0.86 -1.11,-1.83 -1.73,-2.91c-0.68,-1.19 -1.42,-2.49 -3,-5.46c-0.88,-1.65 -1.79,-3.41 -2.73,-5.25c-0.96,-1.9 -1.93,-3.85 -2.88,-5.82c-0.95,-1.97 -1.89,-3.93 -3.56,-7.76c-0.79,-1.81 -1.5,-3.56 -2.14,-5.25c-0.62,-1.62 -1.17,-3.18 -1.65,-4.7c-0.47,-1.45 -0.9,-2.86 -1.54,-5.55c-0.3,-1.28 -0.54,-2.52 -0.73,-3.73c-0.19,-1.17 -0.34,-2.31 -0.45,-3.42c-0.11,-1.08 -0.2,-2.14 -0.31,-4.18c-0.05,-0.99 -0.09,-1.97 -0.09,-2.95c0,-0.99 0.03,-1.99 0.11,-3.01c0.08,-1.06 0.19,-2.17 0.64,-4.54c0.25,-1.29 0.58,-2.63 0.97,-4c0.4,-1.41 0.86,-2.82 1.39,-4.22c0.53,-1.4 1.06,-2.79 2.47,-5.28c0.67,-1.19 1.45,-2.26 2.25,-3.26c0.78,-0.97 1.61,-1.86 2.45,-2.68c0.82,-0.8 1.65,-1.54 3.3,-2.89c0.78,-0.64 1.56,-1.25 2.32,-1.83c0.74,-0.57 1.47,-1.11 2.19,-1.64c0.71,-0.52 1.42,-1.03 2.82,-2.03c0.7,-0.5 1.4,-1 2.08,-1.49c0.68,-0.49 1.34,-0.97 1.97,-1.44c0.62,-0.46 1.21,-0.89 2.28,-1.74c0.48,-0.39 0.93,-0.76 1.34,-1.12c0.39,-0.34 0.76,-0.67 1.12,-0.99c0.35,-0.31 0.68,-0.63 1.37,-1.22c0.35,-0.3 0.72,-0.6 1.08,-0.9c0.37,-0.29 0.73,-0.58 1.09,-0.87c0.35,-0.28 0.7,-0.55 1.33,-1.07c0.29,-0.24 0.57,-0.48 0.83,-0.72c0.26,-0.24 0.51,-0.48 0.76,-0.74c0.26,-0.27 0.52,-0.55 1.08,-1.2c0.31,-0.36 0.64,-0.75 0.97,-1.16c0.35,-0.42 0.69,-0.86 1.04,-1.3l0.35,-0.44l0.34,-0.43" fill="none" id="svg_9" stroke="#000000"/>
  <path d="m532,358c-2.22,-2.65 -2.86,-3.21 -3.6,-3.83c-0.83,-0.69 -1.75,-1.44 -2.76,-2.26c-1.09,-0.88 -2.25,-1.83 -4.81,-3.91c-1.39,-1.13 -2.83,-2.31 -4.35,-3.54c-1.57,-1.27 -3.19,-2.57 -4.87,-3.89c-1.72,-1.35 -3.46,-2.72 -7.12,-5.41c-1.86,-1.36 -3.76,-2.7 -5.71,-4.01c-1.98,-1.34 -4.03,-2.67 -6.14,-3.98c-2.16,-1.34 -4.39,-2.7 -9.14,-5.34c-2.48,-1.38 -5.06,-2.73 -7.71,-4.09c-2.7,-1.39 -5.45,-2.77 -8.25,-4.15c-2.82,-1.4 -5.67,-2.79 -11.37,-5.59c-2.84,-1.4 -5.65,-2.78 -8.41,-4.16c-2.68,-1.34 -5.26,-2.65 -7.72,-3.92c-2.32,-1.2 -4.5,-2.31 -8.21,-4.42c-1.55,-0.89 -2.88,-1.71 -3.99,-2.48c-0.96,-0.67 -1.76,-1.29 -2.38,-1.89c-0.53,-0.52 -1,-0.99 -1.46,-1.97c-0.21,-0.43 -0.31,-0.88 -0.33,-1.32c-0.02,-0.43 0.07,-0.88 0.24,-1.31c0.18,-0.46 0.45,-0.94 1.25,-1.87c0.46,-0.53 1.02,-1.04 1.63,-1.57c0.64,-0.55 1.32,-1.09 2.04,-1.61c0.73,-0.53 1.47,-1.06 2.99,-1.99c0.74,-0.45 1.48,-0.85 2.21,-1.23c0.72,-0.37 1.43,-0.71 2.15,-1.04c0.7,-0.32 1.41,-0.63 2.81,-1.23c0.7,-0.3 1.4,-0.6 2.11,-0.9c0.71,-0.31 1.43,-0.62 2.16,-0.93c0.74,-0.32 1.5,-0.65 3.06,-1.33c0.81,-0.35 1.63,-0.71 2.45,-1.09c0.82,-0.37 1.63,-0.74 2.42,-1.12c0.76,-0.37 1.5,-0.71 2.79,-1.46c0.58,-0.33 1.09,-0.67 1.55,-1.01c0.43,-0.32 0.81,-0.64 1.15,-0.98c0.32,-0.32 0.62,-0.64 1.13,-1.34c0.25,-0.35 0.48,-0.71 0.7,-1.09c0.21,-0.37 0.41,-0.74 0.58,-1.12c0.17,-0.37 0.33,-0.73 0.55,-1.46c0.1,-0.34 0.17,-0.68 0.22,-1.02c0.05,-0.33 0.09,-0.67 0.12,-1.01c0.03,-0.35 0.06,-0.71 0.15,-1.47c0.05,-0.41 0.12,-0.84 0.19,-1.27c0.08,-0.45 0.16,-0.89 0.25,-1.34l0.09,-0.45l0.1,-0.44" fill="none" id="svg_11" stroke="#000000"/>
 </g>
</svg>