<?xml version="1.0"?>
<svg width="400" height="400" xmlns="http://www.w3.org/2000/svg" xmlns:svg="http://www.w3.org/2000/svg">
 <!-- Created with SVG-edit - https://github.com/SVG-Edit/svgedit-->
 <g class="layer">
  <title>Layer 1</title>
  <rect fill="#000000" height="300" id="svg_1" rx="20" ry="20" stroke="#000000" stroke-opacity="0" width="300" x="50" y="50"/>
  <rect fill="#ffffff" height="240" id="svg_2" rx="20" ry="20" stroke="#000000" stroke-opacity="0" transform="matrix(1 0 0 1 0 0)" width="260" x="70" y="90"/>
  <rect fill="#000000" height="60" id="svg_3" rx="10" ry="10" stroke="#ffffff" stroke-width="2" width="20" x="120" y="40"/>
  <rect fill="#000000" height="60" id="svg_6" rx="10" ry="10" stroke="#ffffff" stroke-width="2" width="20" x="260" y="40"/>
  <rect fill="#000000" height="30" id="svg_8" stroke="#000000" stroke-opacity="0" width="30" x="190" y="150"/>
  <rect fill="#000000" height="30" id="svg_9" stroke="#000000" stroke-opacity="0" transform="matrix(1 0 0 1 0 0)" width="30" x="230" y="150"/>
  <rect fill="#000000" height="30" id="svg_10" stroke="#000000" stroke-opacity="0" transform="matrix(1 0 0 1 0 0)" width="30" x="270" y="150"/>
  <rect fill="#000000" height="30" id="svg_12" stroke="#000000" stroke-opacity="0" transform="matrix(1 0 0 1 0 0)" width="30" x="270" y="190"/>
  <rect fill="#000000" height="30" id="svg_13" stroke="#000000" stroke-opacity="0" transform="matrix(1 0 0 1 0 0)" width="30" x="230" y="190"/>
  <rect fill="#000000" height="30" id="svg_14" stroke="#000000" stroke-opacity="0" transform="matrix(1 0 0 1 0 0)" width="30" x="190" y="190.28"/>
  <rect fill="#000000" height="30" id="svg_15" stroke="#000000" stroke-opacity="0" transform="matrix(1 0 0 1 0 0)" width="30" x="150" y="190.55"/>
  <rect fill="#000000" height="30" id="svg_16" stroke="#000000" stroke-opacity="0" transform="matrix(1 0 0 1 0 0)" width="30" x="110" y="190"/>
  <rect fill="#000000" height="30" id="svg_17" stroke="#000000" stroke-opacity="0" transform="matrix(1 0 0 1 0 0)" width="30" x="110.28" y="230"/>
  <rect fill="#000000" height="30" id="svg_18" stroke="#000000" stroke-opacity="0" transform="matrix(1 0 0 1 0 0)" width="30" x="150" y="230.55"/>
  <rect fill="#000000" height="30" id="svg_19" stroke="#000000" stroke-opacity="0" transform="matrix(1 0 0 1 0 0)" width="30" x="190" y="230"/>
  <rect fill="#000000" height="30" id="svg_20" stroke="#000000" stroke-opacity="0" transform="matrix(1 0 0 1 0 0)" width="30" x="230" y="230"/>
  <rect fill="#000000" height="30" id="svg_21" stroke="#000000" stroke-opacity="0" transform="matrix(1 0 0 1 0 0)" width="30" x="270" y="231"/>
  <rect fill="#000000" height="30" id="svg_22" stroke="#000000" stroke-opacity="0" transform="matrix(1 0 0 1 0 0)" width="30" x="110.5" y="270"/>
  <rect fill="#000000" height="30" id="svg_23" stroke="#000000" stroke-opacity="0" transform="matrix(1 0 0 1 0 0)" width="30" x="150" y="270"/>
  <rect fill="#000000" height="30" id="svg_24" stroke="#000000" stroke-opacity="0" transform="matrix(1 0 0 1 0 0)" width="30" x="190.5" y="270"/>
  <rect fill="#000000" height="30" id="svg_25" stroke="#000000" stroke-opacity="0" width="30" x="230" y="270"/>
  <rect fill="#000000" height="30" id="svg_30" stroke="#000000" stroke-opacity="0" width="30" x="270" y="270"/>
 </g>
</svg>