<?xml version="1.0"?>
<svg width="400" height="400" xmlns="http://www.w3.org/2000/svg" xmlns:svg="http://www.w3.org/2000/svg">
 <!-- Created with SVG-edit - https://github.com/SVG-Edit/svgedit-->
 <g class="layer">
  <title>Layer 1</title>
  <rect fill="#000000" height="300" id="svg_1" rx="20" ry="20" stroke="#000000" stroke-opacity="0" transform="matrix(1 0 0 1 0 0)" width="300" x="50" y="50"/>
  <rect fill="#ffffff" height="240" id="svg_2" rx="20" ry="20" stroke="#000000" stroke-opacity="0" transform="matrix(1 0 0 1 0 0)" width="260" x="70" y="90"/>
  <rect fill="#000000" height="60" id="svg_3" rx="10" ry="10" stroke="#ffffff" transform="matrix(1 0 0 1 0 0)" width="20" x="270" y="40"/>
  <rect fill="#000000" height="60" id="svg_6" rx="10" ry="10" stroke="#ffffff" transform="matrix(1 0 0 1 0 0)" width="20" x="110" y="40"/>
  <rect fill="#000000" height="40" id="svg_8" stroke="#000000" stroke-opacity="0" width="40" x="105" y="150"/>
  <rect fill="#000000" height="40" id="svg_32" stroke="#000000" stroke-opacity="0" transform="matrix(1 0 0 1 0 0)" width="40" x="203.24" y="149.41"/>
  <rect fill="#000000" height="40" id="svg_33" stroke="#000000" stroke-opacity="0" transform="matrix(1 0 0 1 0 0)" width="40" x="155" y="200"/>
  <rect fill="#000000" height="40" id="svg_34" stroke="#000000" stroke-opacity="0" transform="matrix(1 0 0 1 0 0)" width="40" x="105" y="200"/>
  <rect fill="#000000" height="40" id="svg_38" stroke="#000000" stroke-opacity="0" width="40" x="105" y="250"/>
  <rect fill="#000000" height="40" id="svg_40" stroke="#000000" stroke-opacity="0" width="40" x="255" y="200"/>
  <rect fill="#000000" height="40" id="svg_41" stroke="#000000" stroke-opacity="0" transform="matrix(1 0 0 1 0 0)" width="40" x="205" y="200"/>
  <rect fill="#000000" height="40" id="svg_42" stroke="#000000" stroke-opacity="0" transform="matrix(1 0 0 1 0 0)" width="40" x="155" y="150"/>
  <rect fill="#000000" height="40" id="svg_43" stroke="#000000" stroke-opacity="0" width="40" x="255" y="150"/>
  <rect fill="#000000" height="40" id="svg_46" stroke="#000000" stroke-opacity="0" transform="matrix(1 0 0 1 0 0)" width="40" x="155" y="250"/>
  <rect fill="#000000" height="40" id="svg_47" stroke="#000000" stroke-opacity="0" transform="matrix(1 0 0 1 0 0) matrix(1 0 0 1 0 0)" width="40" x="205" y="250"/>
 </g>
</svg>