<svg version="1.1" id="Layer_1" xmlns="http://www.w3.org/2000/svg" xmlns:xlink="http://www.w3.org/1999/xlink" x="0px" y="0px"
	 width="100%" viewBox="0 0 500 500" enable-background="new 0 0 500 500" xml:space="preserve">
<path fill="#000000" opacity="1.000000" stroke="none" 
	d="
M222.000000,501.000000 
	C148.000015,501.000000 74.500038,501.000000 1.000039,501.000000 
	C1.000026,334.333405 1.000026,167.666779 1.000013,1.000129 
	C167.666565,1.000086 334.333130,1.000086 500.999756,1.000043 
	C500.999847,167.666534 500.999847,334.333069 500.999939,500.999817 
	C408.166656,501.000000 315.333344,501.000000 222.000000,501.000000 
M348.151581,269.738617 
	C348.413391,269.890015 348.689148,270.009155 349.208740,270.719635 
	C353.061890,274.632324 356.819183,278.647980 360.835022,282.385895 
	C361.850098,283.330719 364.262604,284.250427 365.062012,283.719543 
	C372.092743,279.050598 378.376007,273.316254 381.858826,265.584534 
	C386.777924,254.664398 382.361115,245.641434 374.502411,237.789032 
	C339.621460,202.936111 304.748260,168.075394 269.872101,133.217682 
	C259.942963,123.293808 243.944351,123.827560 235.042206,133.184860 
	C216.996048,152.153641 198.149963,170.361435 179.631332,188.880646 
	C162.551041,205.961472 145.376556,222.949554 128.433517,240.165405 
	C122.224342,246.474564 120.339134,254.190781 122.814125,262.897827 
	C125.688660,273.010468 134.452484,278.078583 140.548630,284.908417 
	C147.634827,278.084381 154.328674,271.638214 161.843491,265.463745 
	C161.895737,294.670685 161.931778,323.877716 162.042892,353.084442 
	C162.049164,354.733215 162.672470,356.379608 162.978912,358.836182 
	C163.186386,368.099792 172.111526,376.123566 181.309479,376.831238 
	C181.803436,376.888275 182.297379,376.995209 182.791336,376.995300 
	C228.727646,377.001282 274.663971,377.006378 320.600250,376.956055 
	C321.744354,376.954803 322.887817,376.335388 324.843292,376.036987 
	C334.081665,375.327850 340.988892,369.390808 343.016022,357.045380 
	C343.010040,327.924713 342.989960,298.804047 343.039490,269.683472 
	C343.041962,268.218536 343.646545,266.754608 344.234192,265.904144 
	C345.420471,267.257141 346.606750,268.610168 348.151581,269.738617 
z"/>
<path fill="#5B6F80" opacity="1.000000" stroke="none" 
	d="
M342.883942,357.973572 
	C340.988892,369.390808 334.081665,375.327850 323.967010,376.005737 
	C275.714539,375.988281 228.338333,376.002075 180.962143,376.015839 
	C172.111526,376.123566 163.186386,368.099792 162.997040,357.961243 
	C163.007736,328.088226 163.003342,299.090179 162.984955,270.092102 
	C162.983902,268.430511 162.868500,266.768982 162.806305,265.107422 
	C162.211700,265.135620 161.617096,265.163818 161.022507,265.192017 
	C154.328674,271.638214 147.634827,278.084381 140.548630,284.908417 
	C134.452484,278.078583 125.688660,273.010468 122.814125,262.897827 
	C120.339134,254.190781 122.224342,246.474564 128.433517,240.165405 
	C145.376556,222.949554 162.551041,205.961472 179.631332,188.880646 
	C198.149963,170.361435 216.996048,152.153641 235.042206,133.184860 
	C243.944351,123.827560 259.942963,123.293808 269.872101,133.217682 
	C304.748260,168.075394 339.621460,202.936111 374.502411,237.789032 
	C382.361115,245.641434 386.777924,254.664398 381.858826,265.584534 
	C378.376007,273.316254 372.092743,279.050598 365.062012,283.719543 
	C364.262604,284.250427 361.850098,283.330719 360.835022,282.385895 
	C356.819183,278.647980 353.061890,274.632324 348.769165,270.670532 
	C348.150726,270.401978 347.971893,270.182587 347.793030,269.963165 
	C346.606750,268.610168 345.420471,267.257141 343.985352,265.346191 
	C343.656799,264.641937 343.606934,264.460968 343.488800,264.359253 
	C343.375702,264.261902 343.191681,264.246887 343.038849,264.195679 
	C342.694275,265.874481 342.053162,267.552582 342.049377,269.232147 
	C341.986572,297.057648 341.987946,324.883301 342.040985,352.708832 
	C342.044312,354.464264 342.590363,356.218689 342.883942,357.973572 
M290.185699,288.970947 
	C290.185699,288.970947 290.404297,288.938232 290.272034,289.873291 
	C290.168610,310.578003 290.065186,331.282684 289.684723,352.663025 
	C289.781403,354.773315 289.878052,356.883636 290.559265,359.505341 
	C292.364044,359.609619 294.168854,359.713867 296.736267,359.906860 
	C297.501678,359.873901 298.267090,359.840912 299.958710,359.912079 
	C305.782166,359.932220 311.605591,359.971039 317.429047,359.967926 
	C325.320862,359.963745 326.314362,358.991486 326.317657,351.037537 
	C326.330994,318.590881 326.217529,286.143616 326.419586,253.698257 
	C326.451263,248.614471 325.453369,244.593155 320.784210,241.182129 
	C298.288788,218.566895 275.793365,195.951660 253.356552,173.395355 
	C229.166199,197.312500 205.558304,220.653778 181.293945,244.355148 
	C180.506119,246.076447 179.037857,247.794998 179.030914,249.519440 
	C178.891312,284.158752 178.934128,318.798767 178.896561,353.438568 
	C178.891876,357.762207 180.830505,359.958099 185.197845,359.954773 
	C194.024323,359.948029 202.852097,360.031921 211.675766,359.875885 
	C212.837738,359.855347 213.978729,358.647034 215.652145,357.462738 
	C216.097214,355.406830 216.919815,353.352539 216.928711,351.294769 
	C217.013351,331.710999 216.887268,312.126099 217.037079,292.543152 
	C217.056122,290.054047 218.311005,287.574402 219.666931,284.977295 
	C220.119827,285.008087 220.572739,285.038879 221.793381,285.356049 
	C224.257248,285.573730 226.720627,285.973785 229.185043,285.980286 
	C249.077744,286.032654 268.970642,286.011047 289.009308,286.370209 
	C289.009308,286.370209 289.061157,286.753448 289.235596,287.337158 
	C289.479584,287.893585 289.723572,288.449982 290.185699,288.970947 
z"/>
<path fill="#DBE5EA" opacity="1.000000" stroke="none" 
	d="
M181.135803,376.423523 
	C228.338333,376.002075 275.714539,375.988281 323.561157,375.989410 
	C322.887817,376.335388 321.744354,376.954803 320.600250,376.956055 
	C274.663971,377.006378 228.727646,377.001282 182.791336,376.995300 
	C182.297379,376.995209 181.803436,376.888275 181.135803,376.423523 
z"/>
<path fill="#9DA6AF" opacity="1.000000" stroke="none" 
	d="
M342.949982,357.509460 
	C342.590363,356.218689 342.044312,354.464264 342.040985,352.708832 
	C341.987946,324.883301 341.986572,297.057648 342.049377,269.232147 
	C342.053162,267.552582 342.694275,265.874481 343.038849,264.195679 
	C343.191681,264.246887 343.375702,264.261902 343.488800,264.359253 
	C343.606934,264.460968 343.656799,264.641937 343.853638,265.039246 
	C343.646545,266.754608 343.041962,268.218536 343.039490,269.683472 
	C342.989960,298.804047 343.010040,327.924713 342.949982,357.509460 
z"/>
<path fill="#BAC3CC" opacity="1.000000" stroke="none" 
	d="
M161.432983,265.327881 
	C161.617096,265.163818 162.211700,265.135620 162.806305,265.107422 
	C162.868500,266.768982 162.983902,268.430511 162.984955,270.092102 
	C163.003342,299.090179 163.007736,328.088226 163.011887,357.556702 
	C162.672470,356.379608 162.049164,354.733215 162.042892,353.084442 
	C161.931778,323.877716 161.895737,294.670685 161.432983,265.327881 
z"/>
<path fill="#9DA6AF" opacity="1.000000" stroke="none" 
	d="
M347.972290,269.850891 
	C347.971893,270.182587 348.150726,270.401978 348.654205,270.358734 
	C348.689148,270.009155 348.413391,269.890015 347.972290,269.850891 
z"/>
<path fill="#97D5C9" opacity="1.000000" stroke="none" 
	d="
M221.025635,285.069702 
	C220.572739,285.038879 220.119827,285.008087 218.940765,285.014038 
	C214.478043,285.778290 215.010666,288.753265 214.999908,291.335327 
	C214.914200,311.892944 214.870728,332.450775 214.560455,353.202087 
	C212.328278,354.684326 210.460907,356.815887 208.349503,357.093842 
	C203.279602,357.761353 198.094879,357.550262 192.956985,357.709320 
	C182.121140,358.044769 180.092041,356.051544 180.008041,344.959167 
	C180.001755,344.127960 180.004501,343.296661 180.004501,342.465424 
	C180.004303,323.180420 179.890945,303.894470 180.049149,284.610748 
	C180.136307,273.989014 180.633926,263.369232 181.047699,252.752502 
	C181.161758,249.826080 181.639542,246.913834 181.950409,243.995056 
	C205.558304,220.653778 229.166199,197.312500 253.356552,173.395355 
	C275.793365,195.951660 298.288788,218.566895 320.947845,241.874054 
	C322.073883,247.893997 323.812439,253.213501 323.870789,258.551392 
	C324.211212,289.694580 324.119415,320.842285 324.290710,351.987823 
	C324.309937,355.484833 322.802979,356.886475 319.587738,356.929993 
	C314.924683,356.993164 310.233551,356.713928 305.609070,357.154602 
	C303.353088,357.369598 301.220795,358.882507 299.032501,359.807922 
	C298.267090,359.840912 297.501678,359.873901 296.201782,359.543945 
	C294.779572,354.843048 293.204559,350.517487 293.125824,346.164856 
	C292.822754,329.409851 293.098297,312.644867 292.880737,295.887207 
	C292.850525,293.560547 291.268127,291.254059 290.404297,288.938232 
	C290.404297,288.938232 290.185699,288.970947 290.106506,288.661804 
	C289.705231,287.819580 289.383209,287.286530 289.061157,286.753448 
	C289.061157,286.753448 289.009308,286.370209 288.658447,285.880005 
	C287.497925,285.229645 286.688080,284.928894 285.878632,284.929932 
	C264.260956,284.957581 242.643295,285.016266 221.025635,285.069702 
z"/>
<path fill="#9FD1CC" opacity="1.000000" stroke="none" 
	d="
M299.495605,359.859985 
	C301.220795,358.882507 303.353088,357.369598 305.609070,357.154602 
	C310.233551,356.713928 314.924683,356.993164 319.587738,356.929993 
	C322.802979,356.886475 324.309937,355.484833 324.290710,351.987823 
	C324.119415,320.842285 324.211212,289.694580 323.870789,258.551392 
	C323.812439,253.213501 322.073883,247.893997 321.110168,242.155869 
	C325.453369,244.593155 326.451263,248.614471 326.419586,253.698257 
	C326.217529,286.143616 326.330994,318.590881 326.317657,351.037537 
	C326.314362,358.991486 325.320862,359.963745 317.429047,359.967926 
	C311.605591,359.971039 305.782166,359.932220 299.495605,359.859985 
z"/>
<path fill="#A1D1CE" opacity="1.000000" stroke="none" 
	d="
M181.622192,244.175110 
	C181.639542,246.913834 181.161758,249.826080 181.047699,252.752502 
	C180.633926,263.369232 180.136307,273.989014 180.049149,284.610748 
	C179.890945,303.894470 180.004303,323.180420 180.004501,342.465424 
	C180.004501,343.296661 180.001755,344.127960 180.008041,344.959167 
	C180.092041,356.051544 182.121140,358.044769 192.956985,357.709320 
	C198.094879,357.550262 203.279602,357.761353 208.349503,357.093842 
	C210.460907,356.815887 212.328278,354.684326 214.616791,353.614685 
	C214.994461,355.218750 215.061951,356.603760 215.129456,357.988800 
	C213.978729,358.647034 212.837738,359.855347 211.675766,359.875885 
	C202.852097,360.031921 194.024323,359.948029 185.197845,359.954773 
	C180.830505,359.958099 178.891876,357.762207 178.896561,353.438568 
	C178.934128,318.798767 178.891312,284.158752 179.030914,249.519440 
	C179.037857,247.794998 180.506119,246.076447 181.622192,244.175110 
z"/>
<path fill="#9FD1CC" opacity="1.000000" stroke="none" 
	d="
M290.338165,289.405762 
	C291.268127,291.254059 292.850525,293.560547 292.880737,295.887207 
	C293.098297,312.644867 292.822754,329.409851 293.125824,346.164856 
	C293.204559,350.517487 294.779572,354.843048 295.820496,359.499573 
	C294.168854,359.713867 292.364044,359.609619 290.326477,358.815063 
	C290.049683,356.078979 290.005707,354.033203 289.961731,351.987396 
	C290.065186,331.282684 290.168610,310.578003 290.338165,289.405762 
z"/>
<path fill="#507279" opacity="1.000000" stroke="none" 
	d="
M215.390793,357.725769 
	C215.061951,356.603760 214.994461,355.218750 214.870636,353.421112 
	C214.870728,332.450775 214.914200,311.892944 214.999908,291.335327 
	C215.010666,288.753265 214.478043,285.778290 218.603973,285.070618 
	C218.311005,287.574402 217.056122,290.054047 217.037079,292.543152 
	C216.887268,312.126099 217.013351,331.710999 216.928711,351.294769 
	C216.919815,353.352539 216.097214,355.406830 215.390793,357.725769 
z"/>
<path fill="#507279" opacity="1.000000" stroke="none" 
	d="
M221.409515,285.212891 
	C242.643295,285.016266 264.260956,284.957581 285.878632,284.929932 
	C286.688080,284.928894 287.497925,285.229645 288.585541,285.700867 
	C268.970642,286.011047 249.077744,286.032654 229.185043,285.980286 
	C226.720627,285.973785 224.257248,285.573730 221.409515,285.212891 
z"/>
<path fill="#507279" opacity="1.000000" stroke="none" 
	d="
M289.823242,352.325195 
	C290.005707,354.033203 290.049683,356.078979 290.034180,358.559357 
	C289.878052,356.883636 289.781403,354.773315 289.823242,352.325195 
z"/>
<path fill="#507279" opacity="1.000000" stroke="none" 
	d="
M289.148376,287.045288 
	C289.383209,287.286530 289.705231,287.819580 289.997437,288.679535 
	C289.723572,288.449982 289.479584,287.893585 289.148376,287.045288 
z"/>
</svg>