<?xml version="1.0"?>
<svg width="600" height="600" xmlns="http://www.w3.org/2000/svg" xmlns:svg="http://www.w3.org/2000/svg">
 <!-- Created with SVG-edit - https://github.com/SVG-Edit/svgedit-->

 <g class="layer">
  <title>Layer 1</title>
  <rect fill="#ffffff" height="527" id="svg_1" rx="20" ry="20" stroke="#000000" stroke-width="20" transform="matrix(1 0 0 1 0 0)" width="365" x="120" y="35"/>
  <line fill="none" id="svg_8" stroke="#000000" stroke-width="20" x1="160" x2="445" y1="100" y2="100"/>
  <line fill="none" id="svg_9" stroke="#000000" stroke-width="20" transform="matrix(1 0 0 1 0 0)" x1="160" x2="445" y1="160" y2="160"/>
  <line fill="none" id="svg_10" stroke="#000000" stroke-width="20" transform="matrix(1 0 0 1 0 0)" x1="160" x2="445" y1="220" y2="220"/>
  <line fill="none" id="svg_14" stroke="#000000" stroke-width="20" transform="matrix(1 0 0 1 0 0)" x1="160" x2="400" y1="280" y2="280"/>
  <rect fill="#ffffff" height="53" id="svg_2" rx="10" ry="10" stroke="#000000" stroke-width="4" transform="matrix(0.766044 -0.642788 0.642788 0.766044 -29.1973 376.781)" width="200" x="418" y="155"/>
  <path d="m375.86,268.03l21.55,-36.42l21.55,36.42z" fill="#ffffff" id="svg_13" stroke="#000000" stroke-width="3" transform="matrix(1 0 0 1 0 0) rotate(-10 397.42 249.821)"/>
 </g>
</svg>