<?xml version="1.0" standalone="no"?>
<!DOCTYPE svg PUBLIC "-//W3C//DTD SVG 20010904//EN"
 "http://www.w3.org/TR/2001/REC-SVG-20010904/DTD/svg10.dtd">
<svg version="1.0" xmlns="http://www.w3.org/2000/svg"
 width="512.000000pt" height="512.000000pt" viewBox="0 0 512.000000 512.000000"
 preserveAspectRatio="xMidYMid meet">

<g transform="translate(0.000000,512.000000) scale(0.100000,-0.100000)"
fill="#000000" stroke="none">
<path d="M2105 5108 c-52 -19 -82 -47 -109 -100 -33 -67 -33 -112 2 -179 22
-43 38 -59 81 -81 49 -26 62 -28 167 -28 l114 0 0 -199 0 -199 -27 -6 c-16 -2
-50 -8 -78 -11 -196 -25 -433 -99 -640 -200 -232 -114 -387 -223 -569 -403
-397 -391 -620 -896 -643 -1457 -24 -601 204 -1183 632 -1610 543 -542 1321
-755 2069 -566 511 130 967 455 1264 901 170 255 291 573 338 890 24 156 24
454 0 608 -57 372 -195 706 -414 997 l-61 80 109 110 c111 113 133 145 145
206 21 111 -86 230 -205 229 -54 -1 -116 -42 -225 -150 l-110 -110 -45 37
c-138 111 -374 245 -556 316 -143 56 -351 107 -536 132 l-48 6 0 200 0 199
115 0 c127 0 169 11 218 58 43 41 60 81 60 142 0 61 -17 101 -60 142 -60 58
-64 58 -530 57 -275 0 -439 -4 -458 -11z m626 -1189 c685 -69 1260 -517 1493
-1159 216 -598 89 -1265 -333 -1757 -186 -216 -478 -413 -751 -506 -181 -61
-318 -86 -515 -94 -593 -22 -1147 252 -1503 745 -75 105 -190 332 -232 459
-306 928 200 1930 1127 2232 242 79 474 105 714 80z"/>
<path d="M3265 3126 c-39 -19 -139 -113 -456 -432 -224 -225 -415 -425 -424
-444 -35 -68 -14 -182 41 -231 60 -52 159 -67 224 -34 46 22 846 819 870 865
45 87 33 169 -34 236 -66 66 -138 79 -221 40z"/>
</g>
</svg>
