<?xml version="1.0"?>
<svg width="600" height="600" xmlns="http://www.w3.org/2000/svg" xmlns:svg="http://www.w3.org/2000/svg">
 <!-- Created with SVG-edit - https://github.com/SVG-Edit/svgedit-->
 <g class="layer">
  <title>Layer 1</title>
  <rect fill="#ffffff" height="61.91" id="svg_2" rx="4" ry="4" stroke="#000000" stroke-width="8" transform="rotate(-15.5378 489.68 406.405)" width="29" x="475.18" y="375.45"/>
  <path d="m429.36,30.7c-1.24,-0.35 -2.46,-0.61 -3.74,-0.88c-20.38,-4.23 -41.74,2.85 -56.46,18.76l-9.13,12.67c2.55,-4.59 5.59,-8.85 9.13,-12.67c-10.67,-21.33 -30.48,-35.82 -53.5,-39.15c-23.02,-3.32 -46.51,4.93 -63.37,22.28c-23.7,-27.28 -60.63,-37.66 -95.16,-26.69c-34.53,10.97 -60.64,41.37 -67.15,78.25l-1.52,15.35c0.13,-5.15 0.62,-10.26 1.52,-15.35l-0.87,1.18c-25.45,-5.03 -51.62,7.74 -64.87,31.65c-13.25,23.91 -10.57,53.55 6.64,73.46l30.8,18.55c-11.94,-2.69 -22.68,-9.15 -30.8,-18.55c-22.25,13.28 -34.6,39.41 -30.8,65.37c3.79,25.96 22.93,46.22 47.78,50.77l15.76,0.71c-5.3,0.49 -10.56,0.24 -15.76,-0.71c5.75,29.27 22.56,54.57 46.73,70.12c24.18,15.55 53.6,20.06 81.68,12.55c9.66,36.12 38.62,62.57 74.29,67.9c35.68,5.32 71.75,-11.45 92.58,-43.02l9.53,-18.3c-2.58,6.42 -5.74,12.55 -9.53,18.3c18.58,22.67 47.74,32.76 76.27,26.39c28.54,-6.38 51.95,-28.25 61.25,-57.14l4.9,-45.99l-24.96,-39.98c21.21,24.81 29.96,55.21 20.06,85.97c31.28,10.16 66.36,-8.38 88,-35.49c21.64,-27.11 28.13,-63.71 17.11,-96.2c14.17,-17.17 20.72,-39.7 17.92,-61.75c-2.8,-22.04 -14.61,-41.49 -32.46,-53.26c3.62,-26.93 -8.03,-53.15 -29.82,-67.38c-21.79,-14.23 -49.86,-13.89 -72.06,0.89l-14.86,13.35c4.34,-5.15 9.32,-9.67 14.86,-13.35c-6.4,-19.1 -21.35,-33.43 -39.98,-38.63l0.01,0.01z" fill="#ffffff" id="svg_1" stroke="#000000" stroke-width="10" transform="matrix(1 0 0 1 0 0)"/>
  <path d="m179.5,188c-0.89,3.52 -1.42,4.28 -2.13,5.04c-0.38,0.41 -0.79,0.84 -2.21,2.13c-0.51,0.46 -1.04,0.92 -1.59,1.39c-0.57,0.48 -1.16,0.97 -1.77,1.45c-0.63,0.5 -1.27,1 -2.64,1.99c-0.7,0.51 -1.43,1 -2.18,1.5c-0.75,0.5 -1.51,0.99 -2.28,1.47c-0.76,0.48 -1.53,0.96 -3.05,1.87c-0.74,0.45 -1.48,0.88 -2.21,1.31c-0.72,0.43 -1.44,0.85 -2.15,1.28c-0.71,0.43 -1.42,0.85 -2.81,1.74c-0.7,0.45 -1.4,0.91 -2.09,1.38c-0.68,0.46 -1.35,0.93 -2.01,1.39c-0.64,0.45 -1.25,0.89 -2.41,1.73c-0.54,0.39 -1.04,0.76 -1.52,1.11c-0.45,0.34 -0.88,0.65 -1.65,1.25c-0.35,0.28 -1.32,1.01 -2.07,1.77c-0.5,0.51 -0.97,1.12 -1.68,2.28c-0.27,0.45 -0.82,1.45 -1.1,1.98c-0.29,0.54 -0.57,1.1 -1.48,2.77c-0.3,0.55 -0.6,1.08 -1.17,2.13c-0.27,0.51 -0.56,1.01 -0.98,2.03c-0.4,0.99 -0.63,2 -0.75,3.02c-0.06,0.52 -0.1,1.59 -0.1,2.15c-0.01,1.16 0,2.4 0.01,3.05c0.01,0.67 0.04,1.36 0.09,2.07c0.06,0.73 0.11,1.49 0.39,3.04c0.15,0.81 0.35,1.63 0.57,2.46c0.22,0.84 0.47,1.66 0.73,2.48c0.26,0.8 0.52,1.59 1.04,3.06c0.24,0.68 0.48,1.33 0.93,2.52c0.21,0.56 0.42,1.1 0.83,2.14c0.4,1.01 0.8,2 0.99,2.5c0.37,0.98 0.57,1.46 0.84,2.42c0.38,1.35 0.42,1.8 0.5,2.66c0.07,0.85 0.08,1.71 0.07,3.05c-0.01,0.93 0,1.41 -0.11,2.35c-0.11,0.95 -0.35,1.88 -0.75,2.74c-0.41,0.87 -0.69,1.27 -1.26,2.08c-0.28,0.41 -1.18,1.61 -1.79,2.4c-0.3,0.4 -0.93,1.2 -1.25,1.6c-1,1.21 -1.36,1.6 -2.09,2.4c-0.36,0.4 -1.09,1.17 -1.44,1.55c-0.99,1.08 -1.54,1.77 -2.06,2.42c-0.5,0.63 -0.99,1.26 -1.89,2.14c-0.65,0.63 -1.02,0.91 -1.74,1.54c-0.74,0.64 -1.46,1.32 -2.13,2.06c-0.35,0.38 -1.03,1.23 -1.38,1.7c-0.37,0.5 -0.76,1.03 -1.6,2.24c-0.47,0.67 -0.96,1.39 -1.48,2.16c-0.54,0.8 -1.11,1.63 -1.69,2.5c-0.6,0.89 -1.22,1.8 -2.5,3.68c-0.65,0.96 -1.32,1.92 -1.99,2.89c-0.67,0.98 -1.35,1.96 -2.02,2.95c-0.67,0.99 -1.35,1.98 -2.66,3.99c-0.65,1 -1.28,1.99 -1.89,2.97c-0.59,0.96 -1.16,1.9 -1.69,2.81c-0.51,0.87 -0.99,1.69 -1.76,3.22c-0.34,0.67 -0.61,1.28 -0.84,1.85c-0.21,0.51 -0.37,0.98 -0.5,1.42c-0.12,0.39 -0.21,0.76 -0.32,1.4c-0.05,0.29 -0.09,0.56 -0.1,0.83c-0.01,0.25 -0.01,0.51 0.02,0.76c0.03,0.26 0.05,0.53 0.36,1.39c0.25,0.68 0.6,1.4 1.08,2.11c0.75,1.12 1.11,1.44 1.77,2.09c0.65,0.63 1.28,1.2 2.04,1.99l0.44,0.7l0.21,0.8l0.01,1.01" fill="none" id="svg_14" stroke="#000000" stroke-width="5" transform="matrix(1 0 0 1 0 0)"/>
  <path d="m244.5,310c-0.01,2.03 -0.01,2.62 -0.26,3.66c-0.2,0.85 -0.6,1.8 -0.82,2.33c-0.48,1.14 -0.76,1.75 -1.04,2.4c-0.29,0.67 -0.89,2.11 -1.19,2.88c-0.31,0.8 -0.62,1.63 -0.94,2.51c-0.34,0.92 -0.7,1.88 -1.09,2.88c-0.41,1.06 -1.33,3.35 -1.86,4.57c-0.55,1.28 -1.13,2.6 -1.72,3.95c-0.6,1.37 -1.2,2.74 -1.79,4.13c-0.58,1.37 -1.65,4.03 -2.12,5.31c-0.45,1.23 -0.86,2.43 -1.23,3.57c-0.36,1.09 -0.68,2.12 -0.98,3.1c-0.28,0.92 -0.8,2.55 -1.05,3.27c-0.23,0.66 -0.46,1.25 -0.66,1.81c-0.19,0.52 -0.38,1 -0.54,1.47c-0.15,0.45 -0.4,1.34 -0.48,1.8c-0.08,0.47 -0.14,0.95 -0.17,1.46c-0.04,0.53 -0.05,1.08 -0.06,1.65c-0.01,0.61 -0.01,1.93 -0.01,2.65c0,0.76 0.01,1.56 0.02,2.39c0.02,0.87 0.04,1.77 0.09,2.71c0.05,0.97 0.21,3.01 0.33,4.08c0.12,1.1 0.27,2.23 0.45,3.41c0.18,1.22 0.39,2.48 0.63,3.78c0.24,1.36 0.81,4.24 1.12,5.77c0.32,1.57 0.66,3.18 1.01,4.8c0.35,1.63 0.7,3.25 1.04,4.84c0.34,1.56 0.97,4.5 1.26,5.86c0.27,1.28 0.52,2.48 0.75,3.61c0.21,1.05 0.4,2.02 0.57,2.93c0.15,0.83 0.39,2.27 0.48,2.89c0.08,0.55 0.13,1.04 0.17,1.48c0.03,0.39 0.05,0.73 0.06,1.03c0.01,0.27 0.01,0.71 0.01,0.9c0,0.17 0,0.33 0,0.48c0,0.14 0,0.28 0,0.41c0,0.13 0,0.42 0,0.57c0,0.17 -0.01,0.36 -0.05,0.57c-0.04,0.24 -0.12,0.5 -0.23,0.8c-0.13,0.34 -0.54,1.15 -0.82,1.62c-0.32,0.53 -0.69,1.1 -1.11,1.73c-0.46,0.68 -0.97,1.4 -1.53,2.18c-0.59,0.83 -1.91,2.63 -2.63,3.6c-0.75,1.01 -1.53,2.06 -2.33,3.12c-0.81,1.07 -1.62,2.15 -2.43,3.21c-0.8,1.04 -2.35,3.03 -3.09,3.96c-0.7,0.88 -1.38,1.71 -2.01,2.51c-0.61,0.75 -1.17,1.48 -1.71,2.16l-0.5,0.66" fill="none" id="svg_16" stroke="#000000" stroke-width="5" transform="matrix(1 0 0 1 0 0)"/>
  <path d="m443.5,138c-10.67,6 -11.66,6.59 -12.63,7.2c-0.95,0.6 -1.88,1.2 -2.79,1.82c-0.89,0.61 -1.77,1.23 -2.61,1.86c-1.66,1.26 -2.44,1.93 -3.21,2.61c-0.77,0.69 -1.54,1.42 -2.29,2.21c-0.78,0.82 -1.56,1.7 -2.33,2.66c-1.68,2.1 -2.52,3.32 -3.4,4.61c-0.93,1.37 -1.86,2.84 -2.79,4.41c-0.97,1.65 -1.95,3.4 -2.88,5.27c-1.98,3.97 -2.88,6.14 -3.79,8.4c-0.93,2.33 -1.81,4.77 -2.63,7.31c-0.84,2.61 -1.62,5.31 -2.27,8.12c-1.35,5.81 -1.78,8.87 -2.19,11.97c-0.42,3.13 -0.73,6.28 -0.95,9.43c-0.22,3.12 -0.37,6.2 -0.41,9.21c-0.08,5.73 0.04,8.42 0.2,10.99c0.15,2.47 0.37,4.86 0.68,7.18c0.3,2.27 0.66,4.49 1.13,6.68c0.93,4.4 1.56,6.59 2.19,8.81c0.64,2.22 1.33,4.42 2.06,6.6c0.72,2.15 1.46,4.25 2.24,6.28c1.48,3.88 2.25,5.67 2.99,7.39c0.71,1.64 1.41,3.19 2.11,4.66c0.66,1.4 1.3,2.73 1.93,3.99c1.15,2.33 1.69,3.39 2.2,4.41c0.47,0.95 0.91,1.85 1.32,2.69c0.37,0.78 0.72,1.51 1,2.19c0.5,1.19 0.67,1.72 0.8,2.21c0.12,0.43 0.2,0.83 0.26,1.18c0.05,0.32 0.07,0.61 0.08,0.87c0.01,0.44 0.01,0.63 0.01,0.81c0,0.17 0,0.33 0,0.49c0,0.17 0,0.34 0,0.53c0,0.45 0,0.71 0,1c0,0.32 -0.01,0.65 -0.04,1.01c-0.03,0.37 -0.06,0.75 -0.13,1.14c-0.14,0.8 -0.27,1.2 -0.4,1.59c-0.13,0.4 -0.29,0.78 -0.45,1.16l-0.16,0.37l-0.17,0.36l-0.17,0.34" fill="none" id="svg_18" stroke="#000000" stroke-width="5" transform="matrix(1 0 0 1 0 0)"/>
  <path d="m488.5,237c2.63,-3.37 2.91,-3.79 3.2,-4.23c0.31,-0.47 0.63,-0.96 0.98,-1.46c0.37,-0.54 0.76,-1.1 1.68,-2.24c0.49,-0.61 1.05,-1.23 1.63,-1.87c0.62,-0.67 1.28,-1.37 1.99,-2.09c0.74,-0.77 1.53,-1.56 3.24,-3.26c0.92,-0.92 1.88,-1.86 2.88,-2.84c1.03,-1.01 2.1,-2.03 3.2,-3.06c1.12,-1.05 2.26,-2.12 4.64,-4.16c1.2,-1.03 2.41,-2.01 3.63,-2.98c1.2,-0.95 2.4,-1.87 3.58,-2.75c1.15,-0.86 2.27,-1.68 4.38,-3.21c0.98,-0.71 1.92,-1.37 2.82,-1.98c0.86,-0.59 1.7,-1.14 2.51,-1.65c0.79,-0.49 1.57,-0.97 3.15,-1.75c0.79,-0.39 1.58,-0.72 2.39,-1.04c0.8,-0.31 1.61,-0.6 2.41,-0.86c0.8,-0.26 1.6,-0.5 3.19,-0.94c0.78,-0.21 1.56,-0.41 2.32,-0.6c0.76,-0.19 1.5,-0.37 2.23,-0.55c0.72,-0.18 1.43,-0.34 2.8,-0.69c0.67,-0.17 1.32,-0.34 1.96,-0.51c0.63,-0.17 1.25,-0.34 1.86,-0.51c0.61,-0.17 1.21,-0.34 2.41,-0.68c0.6,-0.17 1.2,-0.34 1.79,-0.51c0.61,-0.18 1.21,-0.35 1.82,-0.54c0.61,-0.19 1.23,-0.37 2.49,-0.79c0.64,-0.21 1.29,-0.44 1.93,-0.67c0.65,-0.23 1.29,-0.47 1.94,-0.7c0.64,-0.23 1.26,-0.47 2.49,-0.9c0.59,-0.21 1.17,-0.41 1.73,-0.61c0.55,-0.2 1.09,-0.39 1.62,-0.6c0.52,-0.2 1.03,-0.41 2.01,-0.91c0.49,-0.26 0.96,-0.54 1.43,-0.83c0.47,-0.3 0.93,-0.61 1.38,-0.94c0.46,-0.32 0.9,-0.66 1.8,-1.34c0.45,-0.34 0.9,-0.68 1.35,-1.02c0.46,-0.35 0.92,-0.7 1.39,-1.05c0.48,-0.36 0.97,-0.72 1.99,-1.47c0.53,-0.39 1.08,-0.78 1.64,-1.19c0.58,-0.43 1.17,-0.86 1.77,-1.32c0.62,-0.47 1.26,-0.95 2.57,-2.02c0.68,-0.56 1.38,-1.15 2.07,-1.75c0.71,-0.61 1.41,-1.22 2.12,-1.85l0.71,-0.61l0.7,-0.6" fill="none" id="svg_19" stroke="#000000" stroke-width="5"/>
  <path d="m310.5,210c1.3,-1.09 1.51,-1.66 1.64,-2.4c0.25,-1.42 0.24,-2.01 0.27,-2.64c0.08,-1.41 0.1,-2.19 0.14,-3.03c0.05,-0.9 0.09,-1.85 0.27,-3.93c0.1,-1.13 0.23,-2.32 0.37,-3.56c0.14,-1.29 0.3,-2.63 0.44,-4.02c0.15,-1.43 0.31,-2.89 0.52,-5.93c0.11,-1.56 0.17,-3.16 0.21,-4.79c0.04,-1.67 0.04,-3.37 0,-5.12c-0.04,-1.79 -0.09,-3.62 -0.37,-7.42c-0.15,-1.98 -0.35,-3.99 -0.59,-6.03c-0.25,-2.07 -0.55,-4.16 -0.92,-6.24c-0.37,-2.09 -0.74,-4.18 -1.82,-8.22c-0.53,-1.99 -1.17,-3.93 -1.85,-5.82c-0.67,-1.87 -1.4,-3.69 -2.17,-5.46c-0.75,-1.75 -1.53,-3.45 -3.15,-6.72c-0.79,-1.59 -1.59,-3.13 -2.39,-4.63c-0.78,-1.48 -1.57,-2.93 -2.34,-4.35c-0.76,-1.4 -1.52,-2.78 -2.94,-5.51c-0.7,-1.34 -1.36,-2.67 -1.99,-3.97c-0.61,-1.27 -1.18,-2.5 -1.7,-3.69c-0.49,-1.13 -0.97,-2.2 -1.64,-4.17c-0.29,-0.85 -0.5,-1.65 -0.64,-2.38c-0.12,-0.67 -0.18,-1.31 -0.15,-1.9c0.02,-0.57 0.09,-1.14 0.46,-2.22c0.19,-0.56 0.47,-1.12 0.77,-1.69c0.32,-0.59 0.68,-1.17 1.08,-1.75c0.41,-0.6 0.84,-1.21 1.82,-2.39c0.5,-0.61 1.04,-1.21 1.61,-1.8c0.59,-0.61 1.23,-1.23 1.93,-1.83c0.73,-0.63 1.5,-1.29 3.29,-2.53c0.97,-0.67 2.03,-1.33 3.15,-2c1.17,-0.71 2.41,-1.42 3.7,-2.15c1.34,-0.76 2.74,-1.53 5.65,-3.18c1.52,-0.86 3.08,-1.76 4.69,-2.68c1.65,-0.95 3.35,-1.94 5.1,-2.96c1.8,-1.05 3.66,-2.12 7.54,-4.36c2.03,-1.17 4.1,-2.35 6.19,-3.55c2.11,-1.21 4.2,-2.43 6.27,-3.63l2.03,-1.2l1.97,-1.18" fill="none" id="svg_20" stroke="#000000" stroke-width="5"/>
  <path d="m382.33,328c-0.93,1.5 -1.05,1.94 -1.28,2.97c-0.13,0.59 -0.25,1.21 -0.36,1.86c-0.12,0.68 -0.34,2.1 -0.44,2.83c-0.1,0.74 -0.19,1.51 -0.27,2.31c-0.08,0.84 -0.15,1.73 -0.2,2.66c-0.06,1 -0.14,3.22 -0.17,4.45c-0.03,1.31 -0.04,2.68 -0.03,4.11c0.01,1.48 0.04,2.99 0.11,4.54c0.06,1.56 0.29,4.72 0.46,6.28c0.17,1.56 0.38,3.13 0.63,4.68c0.25,1.56 0.55,3.13 0.88,4.69c0.34,1.58 1.12,4.78 1.57,6.4c0.46,1.64 0.95,3.3 1.49,4.96c0.55,1.69 1.16,3.39 1.82,5.08c0.67,1.73 2.2,5.19 3.04,6.93c0.86,1.76 1.78,3.49 2.74,5.19c0.96,1.7 1.97,3.35 3,4.93c1.02,1.56 3.12,4.44 4.19,5.74c1.04,1.26 2.09,2.42 3.17,3.49c1.05,1.05 2.11,2.01 3.19,2.92c1.06,0.88 3.23,2.48 4.32,3.22c1.09,0.73 2.18,1.41 3.27,2.05c1.07,0.63 2.13,1.22 3.19,1.78c1.02,0.54 2.98,1.52 3.91,1.97c0.9,0.43 1.78,0.85 2.65,1.24c0.85,0.38 1.71,0.75 2.55,1.1c0.86,0.36 2.64,1.04 3.57,1.37c0.95,0.34 1.91,0.67 2.88,0.99c0.98,0.32 1.94,0.61 2.91,0.9l0.95,0.27" fill="none" id="svg_21" stroke="#000000" stroke-width="5" transform="matrix(1 0 0 1 0 0)"/>
  <path d="m175.71,134.21c1.1,-0.96 1.27,-1.46 1.38,-2.12c0.21,-1.25 0.2,-1.77 0.23,-2.33c0.07,-1.24 0.08,-1.93 0.12,-2.67c0.04,-0.79 0.08,-1.63 0.23,-3.47c0.08,-1 0.19,-2.05 0.31,-3.14c0.12,-1.14 0.25,-2.32 0.37,-3.55c0.13,-1.26 0.26,-2.55 0.44,-5.23c0.09,-1.38 0.14,-2.79 0.18,-4.23c0.03,-1.47 0.03,-2.97 0,-4.52c-0.03,-1.58 -0.08,-3.19 -0.31,-6.55c-0.13,-1.75 -0.29,-3.52 -0.5,-5.32c-0.21,-1.83 -0.46,-3.67 -0.78,-5.51c-0.31,-1.84 -0.62,-3.69 -1.53,-7.25c-0.45,-1.76 -0.99,-3.47 -1.56,-5.14c-0.56,-1.65 -1.18,-3.26 -1.83,-4.82c-0.63,-1.54 -1.29,-3.04 -2.65,-5.93c-0.67,-1.4 -1.34,-2.76 -2.01,-4.09c-0.66,-1.31 -1.32,-2.59 -1.97,-3.84c-0.64,-1.24 -1.28,-2.45 -2.48,-4.86c-0.59,-1.18 -1.15,-2.36 -1.68,-3.5c-0.51,-1.12 -0.99,-2.21 -1.43,-3.26c-0.41,-1 -0.82,-1.94 -1.38,-3.68c-0.24,-0.75 -0.42,-1.46 -0.54,-2.1c-0.1,-0.59 -0.15,-1.16 -0.13,-1.68c0.02,-0.5 0.08,-1.01 0.39,-1.96c0.16,-0.49 0.4,-0.99 0.65,-1.49c0.27,-0.52 0.57,-1.03 0.91,-1.54c0.35,-0.53 0.71,-1.07 1.53,-2.11c0.42,-0.54 0.88,-1.07 1.36,-1.59c0.5,-0.54 1.04,-1.09 1.63,-1.61c0.62,-0.56 1.26,-1.14 2.77,-2.23c0.82,-0.59 1.71,-1.17 2.65,-1.76c0.99,-0.63 2.03,-1.25 3.12,-1.9c1.13,-0.67 2.31,-1.35 4.76,-2.81c1.28,-0.76 2.6,-1.55 3.95,-2.36c1.39,-0.84 2.82,-1.71 4.3,-2.61c1.52,-0.93 3.08,-1.87 6.35,-3.85c1.71,-1.03 3.46,-2.07 5.22,-3.13c1.78,-1.07 3.54,-2.14 5.28,-3.2l1.71,-1.06l1.66,-1.04" fill="none" id="svg_3" stroke="#000000" stroke-width="5" transform="matrix(1 0 0 1 0 0) rotate(-157.244 182.301 66.7)"/>
 </g>
</svg>